<svg xmlns="http://www.w3.org/2000/svg" viewBox="0 0 32 32" id="pancake">
  <path fill="#2b2e63" d="M18.73 5.31a4.33 4.33 0 0 1 .84-1.11 5.16 5.16 0 0 1 2.88-1.13A5.17 5.17 0 0 1 21 5.82a4.22 4.22 0 0 1-1.55.86 3.92 3.92 0 0 0-.95-.25c0-.11 0-.23-.05-.34s0-.09 0-.14a5.11 5.11 0 0 1 .28-.64Zm.54 2.33a2.81 2.81 0 1 1-1.54-.25h.35a2.69 2.69 0 0 1 1.19.25Zm-3.65-6.47A4.56 4.56 0 0 1 17.49 3a4 4 0 0 1 .34 1.71 3.69 3.69 0 0 0-2.13-1.49 5 5 0 0 1-.08-2.05ZM11.8 8.25a2.84 2.84 0 0 1 2.89.25 3.69 3.69 0 0 0-.41 1.71 3.84 3.84 0 0 0 .89 2.45 2.81 2.81 0 0 1-2.12 1 2.85 2.85 0 0 1-2.84-2.84 2.82 2.82 0 0 1 1.59-2.57ZM4 12.2a8.06 8.06 0 0 1 2.72-1.61 22.64 22.64 0 0 1 2.65-.81 3.73 3.73 0 0 0-.14 1 3.81 3.81 0 0 0 6.65 2.53 3.87 3.87 0 0 0 2.19.69 3.81 3.81 0 0 0 3.81-3.8 4.48 4.48 0 0 0-.06-.63 14.36 14.36 0 0 1 5.27 2 4.78 4.78 0 0 1 1.78 1.83 2.86 2.86 0 0 1 .26 1 1.91 1.91 0 0 1-.33 1.24l-.23.27c-.18.16-.38.31-.61.48A3.27 3.27 0 0 0 26.58 18a4 4 0 0 0-.11 1c0 .46 0 .74-.21.89s-.72 0-1-.28l-.09-.12a1.69 1.69 0 0 0-.88-.58 1.09 1.09 0 0 0-.87.22 2 2 0 0 0-.66 1.4v.89a4.06 4.06 0 0 1-.1 1.54 1.3 1.3 0 0 1-.08.17c-.08.15-.17.25-.25.26s-.25-.05-.49-.27a3.37 3.37 0 0 1-.76-1.19c-.34-1.28-1.07-2-1.93-1.9a1.63 1.63 0 0 0-1.3 1.08 3.83 3.83 0 0 0-.19 1.38V27a2 2 0 0 1-.48 1.61.57.57 0 0 1-.48.11.83.83 0 0 1-.56-.42 3.55 3.55 0 0 1-.29-1.3c-.07-1-.12-2-.18-3.06 0-.71-.06-1.4-.07-2.09a3.09 3.09 0 0 0-.28-1.45 1.4 1.4 0 0 0-1.62-.76 1.54 1.54 0 0 0-.81.75 4.24 4.24 0 0 0-.42 1.61 4.88 4.88 0 0 1-.11.7c-.11.56-.48 1.17-.94 1.13s-.76-.54-.84-1a5 5 0 0 1 0-1 6.27 6.27 0 0 0 0-1.14 2.06 2.06 0 0 0-1.76-1.89 2.61 2.61 0 0 0-1.55.64l-.15.11c-.31.22-.72.39-.94.24s-.21-.36-.28-.78a4.34 4.34 0 0 0-.14-.66 4 4 0 0 0-1.52-1.81L4 16.41a2.45 2.45 0 0 1-1-1.84 3.17 3.17 0 0 1 1-2.37Zm16.64 10.9h-.05l-.38.06h-.39l-.82.09h-.37v-.89a3.26 3.26 0 0 1 .12-1 .75.75 0 0 1 .49-.47c.41 0 .74.57.91 1.19a3.75 3.75 0 0 0 .49 1.02Zm-6 .32h-1.45c.05-.14.09-.28.13-.41s.08-.54.11-.8a3.88 3.88 0 0 1 .31-1.29.64.64 0 0 1 .27-.29c.14 0 .35.1.46.29a2.55 2.55 0 0 1 .16 1c.01.45.04.97.05 1.5ZM3.19 17l.21.18.17.14a3.07 3.07 0 0 1 1.2 1.33 4.66 4.66 0 0 1 .11.52 1.87 1.87 0 0 0 .69 1.43 1.79 1.79 0 0 0 2-.25l.17-.12a1.78 1.78 0 0 1 1-.46c.43 0 .76.56.83 1.06a6.17 6.17 0 0 1 0 1v1a17.67 17.67 0 0 1-3.71-1.27 6.94 6.94 0 0 1-2.36-1.84 2.49 2.49 0 0 1-.65-1.59A2.25 2.25 0 0 1 3.19 17Zm0 3.82.4.36.1.07a3.36 3.36 0 0 0 .43.31l.07.06c.16.11.34.22.53.33l.13.07c.19.11.39.22.6.32a18 18 0 0 0 4.47 1.47 1.81 1.81 0 0 0 1.46 1 1.67 1.67 0 0 0 1.21-.56H13.73l.71.05h.24c0 .93.1 1.81.16 2.64v.2H13.5q-.36 0-.72-.06l-1-.11-.48-.08a3.81 3.81 0 0 1-.47-.07l-.34-.07c-.34-.06-.67-.12-1-.21l-.43-.11a3 3 0 0 1-.38-.09l-.37-.11-.47-.14-.29-.09q-.45-.15-.87-.33l-.17-.07h-.18l-.1-.05a.2.2 0 0 1-.08 0l-.26-.13-.33-.17-.29-.16c-.2-.11-.38-.24-.56-.36l-.21-.14-.29-.24A2.45 2.45 0 0 1 4 24a.42.42 0 0 1-.13-.11 2.91 2.91 0 0 1-.34-.38 2.53 2.53 0 0 1-.65-1.59 2.21 2.21 0 0 1 .29-1.11ZM16 31c-7.12 0-13.15-2.41-13.15-5.3a2.24 2.24 0 0 1 .32-1.11l.06.05a.29.29 0 0 1 .08.07l.24.2c.1.09.21.17.3.24l.21.15c.2.14.4.27.62.4a2.19 2.19 0 0 0 .33.18 2 2 0 0 0 .36.18 2.15 2.15 0 0 0 .26.14l.13.06.13.06h.06l.15.06.16.07c.29.13.61.25.92.36l.4.13c.16.06.32.1.49.15l.39.11a3.25 3.25 0 0 0 .42.11l.43.11 1.06.22.34.06a4.53 4.53 0 0 0 .49.08 4.44 4.44 0 0 0 .49.07c.34.06.68.09 1 .13l.75.06H15a2.34 2.34 0 0 0 .18.48 1.77 1.77 0 0 0 1.22.94 1.86 1.86 0 0 0 .34 0 1.49 1.49 0 0 0 1-.34 2.17 2.17 0 0 0 .72-1.21H19.49L20 28l.46-.07.59-.08.59-.11c.5-.1 1-.2 1.41-.31l.37-.11.39-.1c.55-.16 1.07-.34 1.53-.52a2.87 2.87 0 0 0 .39-.16l.74-.33.34-.17.33-.18c.21-.12.4-.24.58-.36a.72.72 0 0 0 .15-.11l.38-.27.14-.11a4.89 4.89 0 0 0 .41-.37 2.21 2.21 0 0 1 .32 1.11C29.15 28.59 23.13 31 16 31Zm12.51-7.52A6.48 6.48 0 0 1 26.68 25l-.29.17-.32.15-.69.32-.37.14a14.4 14.4 0 0 1-1.45.5l-.39.1a1.69 1.69 0 0 1-.34.09c-.42.12-.88.22-1.36.31l-.55.09-.58.09-.43.07-.51.06H19l-.41.05V24.36l.51-.05c.28 0 .54-.05.81-.09l.4-.05.42-.07H21.42a1.4 1.4 0 0 0 1.1.35 1.34 1.34 0 0 0 .94-.77 16.07 16.07 0 0 0 3.08-1.14A9.15 9.15 0 0 0 28.82 21a2.29 2.29 0 0 1 .32 1.11 2.55 2.55 0 0 1-.63 1.4Zm0-3.78a7.26 7.26 0 0 1-2.39 1.76 15.43 15.43 0 0 1-2.37.91 9.66 9.66 0 0 0 0-1.08v-.8a1 1 0 0 1 .27-.68h.1c.02 0 .22.16.33.28l.13.13a1.75 1.75 0 0 0 2.34.34 2 2 0 0 0 .52-1.56 2.71 2.71 0 0 1 .07-.72 2.47 2.47 0 0 1 1-1.08l.3-.22a2.32 2.32 0 0 1 .34 1.17 2.58 2.58 0 0 1-.64 1.58Zm1 .3a3.37 3.37 0 0 0 .63-1.9 3.28 3.28 0 0 0-.6-1.85.34.34 0 0 0 .08-.09 2.74 2.74 0 0 0 .51-1.87 3.36 3.36 0 0 0-.38-1.29 5.83 5.83 0 0 0-2.11-2.21 15.55 15.55 0 0 0-6.15-2.25 3.77 3.77 0 0 0-1-1.24 5 5 0 0 0 1.16-.76 6.41 6.41 0 0 0 1.82-4 .44.44 0 0 0-.12-.35.46.46 0 0 0-.35-.12 6.41 6.41 0 0 0-4.11 1.41l-.2.2a4.08 4.08 0 0 0-.37-1.15A5.64 5.64 0 0 0 15.44 0a.44.44 0 0 0-.37 0 .41.41 0 0 0-.25.29 6.44 6.44 0 0 0-.24 1.73v.45a4.1 4.1 0 0 0 .08.57 3.72 3.72 0 0 0-1.87.55 3.35 3.35 0 0 0-.8.65 3.74 3.74 0 0 0-1 2.6 3.94 3.94 0 0 0 .07.69 3.71 3.71 0 0 0-1.17 1.14 21.91 21.91 0 0 0-3.51 1 8.78 8.78 0 0 0-3 1.82A4.14 4.14 0 0 0 2 14.63a3.34 3.34 0 0 0 .53 1.6 3.33 3.33 0 0 0-.64 1.9A3.4 3.4 0 0 0 2.52 20a3.37 3.37 0 0 0-.63 1.89 3.42 3.42 0 0 0 .63 1.9 3.34 3.34 0 0 0-.63 1.88C1.89 29.23 8.08 32 16 32s14.11-2.77 14.11-6.3a3.31 3.31 0 0 0-.63-1.88 3.42 3.42 0 0 0 .63-1.9 3.37 3.37 0 0 0-.63-1.92ZM15.24 7.69A3.8 3.8 0 0 0 13.05 7a3.67 3.67 0 0 0-1.1.17 2.45 2.45 0 0 1 0-.27 2.83 2.83 0 0 1 2.83-2.83h.48a2.88 2.88 0 0 1 2.23 2 .65.65 0 0 1 .05.2 1.1 1.1 0 0 1 0 .16 3.79 3.79 0 0 0-2.3 1.26Z"></path>
  <path fill="#51bf9f" d="M14.91 27.23h-1.34q-.36 0-.72-.06l-1-.11-.48-.08a3.81 3.81 0 0 1-.47-.07l-.34-.07c-.34-.06-.67-.12-1-.21l-.43-.11a3 3 0 0 1-.38-.09l-.37-.11-.47-.14-.36-.18q-.45-.15-.87-.33l-.17-.07h-.18l-.1-.05a.2.2 0 0 1-.08 0l-.26-.13-.33-.17-.29-.16c-.2-.11-.38-.24-.56-.36l-.21-.14-.29-.24A2.45 2.45 0 0 1 4 24a.42.42 0 0 1-.13-.11 2.91 2.91 0 0 1-.34-.38 2.53 2.53 0 0 1-.65-1.59 2.21 2.21 0 0 1 .32-1.11l.4.36.1.07a3.36 3.36 0 0 0 .43.31l.07.06c.16.11.34.22.53.33l.13.07c.19.11.39.22.6.32a18 18 0 0 0 4.47 1.47 1.81 1.81 0 0 0 1.46 1 1.67 1.67 0 0 0 1.21-.56H13.74l.71.05h.24c0 .93.1 1.81.16 2.64.05.16.05.23.06.3zm14.24-5.31a2.55 2.55 0 0 1-.64 1.59A6.48 6.48 0 0 1 26.68 25l-.29.17-.32.15-.69.32-.37.14a14.4 14.4 0 0 1-1.45.5l-.39.1a1.69 1.69 0 0 1-.34.09c-.42.12-.88.22-1.36.31l-.55.09-.58.09-.43.07-.51.06H19l-.41.05V24.36l.51-.05c.28 0 .54-.05.81-.09l.4-.05.42-.07H21.42a1.4 1.4 0 0 0 1.1.35 1.34 1.34 0 0 0 .94-.77 16.07 16.07 0 0 0 3.08-1.14A9.15 9.15 0 0 0 28.82 21a2.29 2.29 0 0 1 .33.92z"></path>
  <path fill="#3da580" d="M29.15 21.92a2.55 2.55 0 0 1-.64 1.59A6.48 6.48 0 0 1 26.68 25l-.29.17-.32.15-.69.32-.37.14a14.4 14.4 0 0 1-1.45.5l-.39.1a1.69 1.69 0 0 1-.34.09c-.42.12-.88.22-1.36.31l-.55.09-.58.09-.43.07-.51.06H19l-.41.05v-.5l.75-.08.51-.06.42-.06a5 5 0 0 0 .56-.09l.55-.1c.47-.08.92-.18 1.34-.29l.34-.09.36-.1a13.27 13.27 0 0 0 1.42-.49 2.92 2.92 0 0 0 .34-.13c.25-.1.47-.21.66-.3l.32-.16.27-.16a5.8 5.8 0 0 0 1.69-1.34 2 2 0 0 0 .53-1.27c0-.06-.1-.49-.17-.8l.35-.31a2.29 2.29 0 0 1 .32 1.11Z"></path>
  <path fill="#f26e61" d="M29.15 25.7c0 2.89-6 5.33-13.15 5.33S2.85 28.59 2.85 25.7a2.24 2.24 0 0 1 .32-1.11l.06.05a.29.29 0 0 1 .08.07l.24.2c.1.09.21.17.3.24l.21.15c.2.14.4.27.62.4a2.19 2.19 0 0 0 .33.18 2 2 0 0 0 .36.18 2.15 2.15 0 0 0 .26.14l.13.06.13.06h.06l.15.06.16.07c.29.13.61.25.92.36l.4.13c.16.06.32.1.49.15l.39.11a3.25 3.25 0 0 0 .42.11l.43.11 1.06.22.34.06a4.53 4.53 0 0 0 .49.08 4.44 4.44 0 0 0 .49.07c.34.06.68.09 1 .13l.75.06H15a2.34 2.34 0 0 0 .18.48 1.77 1.77 0 0 0 1.22.94 1.86 1.86 0 0 0 .34 0 1.49 1.49 0 0 0 1-.34 2.17 2.17 0 0 0 .72-1.21H19.49L20 28l.46-.07.59-.08.59-.11c.5-.1 1-.2 1.41-.31l.37-.11.39-.1c.55-.16 1.07-.34 1.53-.52a2.87 2.87 0 0 0 .39-.16l.74-.33.34-.17.33-.18c.21-.12.4-.24.58-.36a.72.72 0 0 0 .15-.11l.38-.27.14-.11a4.89 4.89 0 0 0 .41-.37 2.21 2.21 0 0 1 .35 1.06zM9.6 22.76a17.67 17.67 0 0 1-3.71-1.27 6.94 6.94 0 0 1-2.39-1.77 2.49 2.49 0 0 1-.65-1.59A2.25 2.25 0 0 1 3.19 17l.21.18.17.14a3.07 3.07 0 0 1 1.2 1.33 4.66 4.66 0 0 1 .11.52 1.87 1.87 0 0 0 .69 1.43 1.79 1.79 0 0 0 2-.25l.17-.12a1.78 1.78 0 0 1 1-.46c.43 0 .76.56.83 1.06a6.17 6.17 0 0 1 0 1c0 .27.01.6.03.93zm5.08.66h-1.49c.05-.14.09-.28.13-.41s.08-.54.11-.8a3.88 3.88 0 0 1 .31-1.29.64.64 0 0 1 .27-.29c.14 0 .35.1.46.29a2.55 2.55 0 0 1 .16 1c.01.45.04.97.05 1.5zm5.96-.32h-.05l-.38.06h-.39l-.82.09h-.37v-.89a3.26 3.26 0 0 1 .12-1 .75.75 0 0 1 .49-.47c.41 0 .74.57.91 1.19a3.75 3.75 0 0 0 .49 1.02zm8.51-4.97a2.58 2.58 0 0 1-.64 1.6 7.26 7.26 0 0 1-2.39 1.76 15.43 15.43 0 0 1-2.37.91 9.66 9.66 0 0 0 0-1.08v-.8a1 1 0 0 1 .27-.68h.1c.02 0 .22.16.33.28l.13.13a1.75 1.75 0 0 0 2.34.34 2 2 0 0 0 .52-1.59 2.71 2.71 0 0 1 .07-.72 2.47 2.47 0 0 1 1-1.08l.3-.22a2.32 2.32 0 0 1 .34 1.15z"></path>
  <path fill="#51bf9f" d="M17.83 4.67a3.69 3.69 0 0 0-2.13-1.45 5 5 0 0 1-.08-2.05A4.56 4.56 0 0 1 17.49 3a4 4 0 0 1 .34 1.67zm4.62-1.6A5.17 5.17 0 0 1 21 5.82a4.22 4.22 0 0 1-1.55.86 3.92 3.92 0 0 0-.95-.25c0-.11 0-.23-.05-.34s0-.09 0-.14a5.11 5.11 0 0 1 .29-.63 4.33 4.33 0 0 1 .84-1.11 5.16 5.16 0 0 1 2.87-1.14z"></path>
  <path fill="#3da580" d="M17.83 4.67a3.19 3.19 0 0 0-.37-.44l-.09-.56a2.66 2.66 0 0 0-.2-.56 3.69 3.69 0 0 0-1.26-1.36A8.47 8.47 0 0 0 16 3.3a1.57 1.57 0 0 0-.29-.08 5 5 0 0 1-.08-2.05A4.56 4.56 0 0 1 17.49 3a4 4 0 0 1 .34 1.67zm4.63-1.6A5.1 5.1 0 0 1 21 5.88a4.48 4.48 0 0 1-1.33.75.29.29 0 0 1-.16 0h-.1l-.41-.1a6 6 0 0 0 1.8-1 4.19 4.19 0 0 0 1.16-2 4.18 4.18 0 0 0-2.53 1.35 9.8 9.8 0 0 0-.91 1.61c0-.12-.05-.24-.08-.36a.51.51 0 0 1 .05-.32 6.36 6.36 0 0 1 .28-.59 4.18 4.18 0 0 1 .82-1 5.08 5.08 0 0 1 2.87-1.15z"></path>
  <path fill="#f26e61" d="M19.27 7.64a2.69 2.69 0 0 0-1.19-.26h-.35a2.84 2.84 0 0 0-2 1.25 2.84 2.84 0 1 0 3.55-1zM18.76 9a.47.47 0 0 1-.34.13.45.45 0 0 1-.34-.13.49.49 0 0 1-.68 0 .48.48 0 0 1 0-.69.9.9 0 0 1 1.38 0 .49.49 0 0 1-.02.69zm-4.48 1.21a3.69 3.69 0 0 1 .41-1.71 2.83 2.83 0 1 0-1.64 5.13 2.81 2.81 0 0 0 2.12-1 3.84 3.84 0 0 1-.89-2.42zm-.83-.71a.51.51 0 0 1-.34.13.46.46 0 0 1-.34-.15.48.48 0 1 1-.69-.67.93.93 0 0 1 .69-.33 1 1 0 0 1 .69.33.48.48 0 0 1-.01.69zm4.08-3.22a.65.65 0 0 0-.05-.2V6a2.88 2.88 0 0 0-2.23-1.95h-.48a2.83 2.83 0 0 0-2.83 2.83 2.45 2.45 0 0 0 0 .27A3.67 3.67 0 0 1 13.05 7a3.8 3.8 0 0 1 2.19.7 3.79 3.79 0 0 1 2.32-1.25 1.1 1.1 0 0 0-.03-.17zm-2.09-.77a.44.44 0 0 1-.33.15.53.53 0 0 1-.35-.15.48.48 0 0 1-.69-.68 1 1 0 0 1 .69-.33 1 1 0 0 1 .69.33.46.46 0 0 1-.01.68z"></path>
  <path fill="#2b2e63" d="M15.44 5.51a.44.44 0 0 1-.33.15.53.53 0 0 1-.35-.15.48.48 0 0 1-.69-.68 1 1 0 0 1 .69-.33 1 1 0 0 1 .69.33.46.46 0 0 1-.01.68Z"></path>
  <path fill="#e15e5a" d="M19.27 7.64a2.69 2.69 0 0 0-1.19-.26h-.35a2.84 2.84 0 0 0-2 1.25 2.84 2.84 0 1 0 3.55-1Zm-1.19 4.9a2.34 2.34 0 0 1-1.6-.63 2.34 2.34 0 0 1 1.32-4h.28a2.22 2.22 0 0 1 1 .21 2.33 2.33 0 0 1-1 4.45Z"></path>
  <path fill="#f26e61" d="M20.42 10.21a2.34 2.34 0 0 1-3.94 1.7 2.34 2.34 0 0 1 1.32-4h.28a2.22 2.22 0 0 1 1 .21 2.33 2.33 0 0 1 1.34 2.09Z"></path>
  <path fill="#e15e5a" d="M15.17 12.66a2.81 2.81 0 0 1-2.12 1 2.85 2.85 0 0 1-2.84-2.84 2.83 2.83 0 0 1 4.48-2.32 3.45 3.45 0 0 0-.2.48 2 2 0 0 0-.47-.3 2.16 2.16 0 0 0-1-.21h-.5a2.31 2.31 0 0 0-1.79 2.28A2.32 2.32 0 0 0 13 13.13a2.35 2.35 0 0 0 1.84-.9 3.23 3.23 0 0 0 .33.43zm2.39-6.22-.48.1a2.31 2.31 0 0 0-1.33-1.77 2.05 2.05 0 0 0-.64-.19.83.83 0 0 0-.35-.08.82.82 0 0 0-.34.08 2.3 2.3 0 0 0-1.59 1 2.39 2.39 0 0 0-.39 1.3V7a3.89 3.89 0 0 0-.49.12 2.45 2.45 0 0 1 0-.27 2.83 2.83 0 0 1 2.83-2.83h.48a2.88 2.88 0 0 1 2.23 2 .65.65 0 0 1 .05.2 1.1 1.1 0 0 1 .02.22z"></path>
  <path fill="#ffdc7c" d="m28.81 15.62-.23.27c-.18.16-.38.31-.61.48A3.27 3.27 0 0 0 26.58 18a4 4 0 0 0-.11 1c0 .46 0 .74-.21.89s-.72 0-1-.28l-.09-.12a1.69 1.69 0 0 0-.88-.58 1.09 1.09 0 0 0-.87.22 2 2 0 0 0-.66 1.4v.89a4.06 4.06 0 0 1-.1 1.54 1.3 1.3 0 0 1-.08.17c-.08.15-.17.25-.25.26s-.25-.05-.49-.27a3.37 3.37 0 0 1-.76-1.19c-.34-1.28-1.07-2-1.93-1.9a1.63 1.63 0 0 0-1.3 1.08 3.83 3.83 0 0 0-.19 1.38V27a2 2 0 0 1-.48 1.61.57.57 0 0 1-.48.11.83.83 0 0 1-.56-.42 3.55 3.55 0 0 1-.29-1.3c-.07-1-.12-2-.18-3.06 0-.71-.06-1.4-.07-2.09a3.09 3.09 0 0 0-.28-1.45 1.4 1.4 0 0 0-1.62-.76 1.54 1.54 0 0 0-.81.75 4.24 4.24 0 0 0-.42 1.61 4.88 4.88 0 0 1-.11.7c-.11.56-.48 1.17-.94 1.13s-.76-.54-.84-1a5 5 0 0 1 0-1 6.27 6.27 0 0 0 0-1.14 2.06 2.06 0 0 0-1.76-1.89 2.61 2.61 0 0 0-1.55.64l-.15.11c-.31.22-.72.39-.94.24s-.21-.36-.28-.78a4.34 4.34 0 0 0-.14-.66 4 4 0 0 0-1.52-1.81L4 16.41a2.45 2.45 0 0 1-1-1.84 3.17 3.17 0 0 1 1-2.37 8.06 8.06 0 0 1 2.72-1.61 22.64 22.64 0 0 1 2.65-.81 3.73 3.73 0 0 0-.14 1 3.81 3.81 0 0 0 6.65 2.53 3.87 3.87 0 0 0 2.19.69 3.81 3.81 0 0 0 3.81-3.8 4.48 4.48 0 0 0-.06-.63 14.36 14.36 0 0 1 5.27 2 4.78 4.78 0 0 1 1.78 1.83 2.86 2.86 0 0 1 .26 1 1.91 1.91 0 0 1-.32 1.22Z"></path>
  <path fill="#3da580" d="M14.91 27.23h-1.34q-.36 0-.72-.06l-1-.11-.48-.08a3.81 3.81 0 0 1-.47-.07l-.34-.07c-.34-.06-.67-.12-1-.21l-.43-.11a3 3 0 0 1-.38-.09l-.37-.11-.47-.14-.36-.18q-.45-.15-.87-.33l-.17-.07h-.18l-.1-.05a.2.2 0 0 1-.08 0l-.26-.13-.33-.17-.29-.16c-.2-.11-.38-.24-.56-.36l-.21-.14-.29-.24A2.45 2.45 0 0 1 4 24a.42.42 0 0 1-.13-.11 2.91 2.91 0 0 1-.34-.38 2.53 2.53 0 0 1-.65-1.59 2.21 2.21 0 0 1 .32-1.11l.32.28c-.07.3-.17.74-.17.81a2.05 2.05 0 0 0 .54 1.28 3.19 3.19 0 0 0 .32.35l.09.08a2.16 2.16 0 0 0 .19.16l.06.06.2.15.2.14a6.22 6.22 0 0 0 .54.35l.27.15.32.17.23.11.15.07.12.06.28.11c.2.08.51.21.85.33l.37.12.34.1h.11l.36.11.37.09.41.11c.34.08.66.14 1 .2l.35.07.44.07h.48c.31.05.63.08 1 .12l.75.06h1.21v.34c0 .23 0 .3.01.37Z"></path>
  <path fill="#e15e5a" d="M29.15 25.7c0 2.89-6 5.33-13.15 5.33S2.85 28.59 2.85 25.7a2.24 2.24 0 0 1 .32-1.11l.06.05a.29.29 0 0 1 .08.07l.17.15c-.07.3-.15.75-.15.81 0 2.28 5.2 4.83 12.65 4.83s12.67-2.5 12.67-4.8a1.24 1.24 0 0 0 0-.27s-.08-.26-.15-.51l.36-.33a2.21 2.21 0 0 1 .29 1.11Z"></path>
  <path fill="#ecc25d" d="m28.81 15.62-.23.27c-.18.16-.38.31-.61.48A3.27 3.27 0 0 0 26.58 18a4 4 0 0 0-.11 1c0 .46 0 .74-.21.89s-.72 0-1-.28l-.09-.12a1.69 1.69 0 0 0-.88-.58 1.09 1.09 0 0 0-.87.22 2 2 0 0 0-.66 1.4v.89a4.06 4.06 0 0 1-.1 1.54 1.3 1.3 0 0 1-.08.17c-.08.15-.17.25-.25.26s-.25-.05-.49-.27a3.37 3.37 0 0 1-.76-1.19c-.34-1.28-1.07-2-1.93-1.9a1.63 1.63 0 0 0-1.3 1.08 3.83 3.83 0 0 0-.19 1.38V27a2 2 0 0 1-.48 1.61.57.57 0 0 1-.48.11.83.83 0 0 1-.56-.42 3.55 3.55 0 0 1-.29-1.3c-.07-1-.12-2-.18-3.06 0-.71-.06-1.4-.07-2.09a3.09 3.09 0 0 0-.28-1.45 1.4 1.4 0 0 0-1.62-.76 1.54 1.54 0 0 0-.81.75 4.24 4.24 0 0 0-.42 1.61 4.88 4.88 0 0 1-.11.7c-.11.56-.48 1.17-.94 1.13s-.76-.54-.84-1a5 5 0 0 1 0-1 6.27 6.27 0 0 0 0-1.14 2.06 2.06 0 0 0-1.76-1.89 2.61 2.61 0 0 0-1.55.64l-.15.11c-.31.22-.72.39-.94.24s-.21-.36-.28-.78a4.34 4.34 0 0 0-.14-.66 4 4 0 0 0-1.52-1.81L4 16.41a2.45 2.45 0 0 1-1-1.84 3.17 3.17 0 0 1 1-2.37 8.06 8.06 0 0 1 2.72-1.61 22.64 22.64 0 0 1 2.65-.81 4.69 4.69 0 0 0-.11.54l-.52.13c-.62.18-1.24.38-1.84.61a7.4 7.4 0 0 0-2.55 1.5 2.62 2.62 0 0 0-.88 2A2 2 0 0 0 4.3 16l.18.13a4.4 4.4 0 0 1 1.69 2.05 5 5 0 0 1 .16.74 2.92 2.92 0 0 0 .07.39 1.16 1.16 0 0 0 .35-.18L7 19a3 3 0 0 1 1.72-.69h.08a2.56 2.56 0 0 1 2.2 2.3 6.33 6.33 0 0 1 .05 1.22 4.17 4.17 0 0 0 0 .88c.05.37.27.62.37.62s.32-.26.43-.74c0-.18.06-.37.09-.59v-.07a4.83 4.83 0 0 1 .46-1.81 2 2 0 0 1 1.11-1 1.53 1.53 0 0 1 .52-.08 2 2 0 0 1 1.69 1.07 3.49 3.49 0 0 1 .34 1.68c0 .69 0 1.37.07 2.07.06 1.09.11 2.11.18 3.05a3 3 0 0 0 .26 1.09.26.26 0 0 0 .19.16h.07c.26-.2.29-.74.3-1.23v-4.51a4.21 4.21 0 0 1 .23-1.56 2.14 2.14 0 0 1 1.7-1.39h.2c1 0 1.89.85 2.28 2.28a2.81 2.81 0 0 0 .61.95 3.71 3.71 0 0 0 .07-1.33v-.1a7.73 7.73 0 0 1 0-.84 2.54 2.54 0 0 1 .84-1.77 1.67 1.67 0 0 1 1-.34 1.43 1.43 0 0 1 .29 0 2 2 0 0 1 1.15.74l.1.1a.63.63 0 0 0 .32.2 4 4 0 0 0 0-.48v-.05a4.4 4.4 0 0 1 .13-1A3.59 3.59 0 0 1 27.64 16l.51-.41.06-.11h.09a.69.69 0 0 0 .11-.13 1.36 1.36 0 0 0 .23-.91 2.11 2.11 0 0 0-.21-.76 4.38 4.38 0 0 0-1.6-1.68 13.46 13.46 0 0 0-4.44-1.8l-.51-.09a4.71 4.71 0 0 0-.05-.54 14.36 14.36 0 0 1 5.27 2 4.78 4.78 0 0 1 1.78 1.83 2.86 2.86 0 0 1 .26 1 1.91 1.91 0 0 1-.33 1.22Z"></path>
  <path fill="#2b2e63" d="M18.76 9a.47.47 0 0 1-.34.13.45.45 0 0 1-.34-.13.49.49 0 0 1-.68 0 .48.48 0 0 1 0-.69.9.9 0 0 1 1.38 0 .49.49 0 0 1-.02.69zm-5.31.5a.51.51 0 0 1-.34.13.46.46 0 0 1-.34-.15.48.48 0 1 1-.69-.67.93.93 0 0 1 .69-.33 1 1 0 0 1 .69.33.48.48 0 0 1-.01.69z"></path>
</svg>
