<?xml version="1.0" encoding="utf-8"?>
<!-- Generator: Adobe Illustrator 27.5.0, SVG Export Plug-In . SVG Version: 6.00 Build 0)  -->
<svg version="1.1" id="Layer_1" xmlns="http://www.w3.org/2000/svg" xmlns:xlink="http://www.w3.org/1999/xlink" x="0px" y="0px"
	 viewBox="0 0 404.338 370.756" style="enable-background:new 0 0 404.338 370.756;" xml:space="preserve">
<g>
	<g>
		<path style="fill:#D7954B;" d="M395.351,27.669c-8.586-21.529-35.133-23.426-54.767-21.558
			c-22.815,2.17-45.423,9.96-66.132,19.674c-11.838,5.553-23.223,12.014-34.064,19.318c-9.511,5.723-18.801,11.831-27.895,18.205
			c-18.549,13-36.445,26.99-53.901,41.456c-17.003,14.09-33.501,28.823-49.187,44.409c-15.672,15.574-30.519,32.012-44.171,49.436
			c-13.524,17.261-25.834,35.519-36.44,54.77c-5.517,10.014-10.761,20.279-15.072,30.892c-4.383,10.791-7.64,22.258-7.656,34.01
			c-0.014,9.979,2.466,20.264,7.997,28.605c5.791,8.733,14.557,14.334,24.581,16.788c22.573,5.526,45.275-5.133,65.505-14.134
			c19.577-8.711,38.739-18.388,57.385-28.993c18.672-10.62,36.823-22.187,54.335-34.676c17.39-12.402,34.153-25.716,50.167-39.896
			c16.078-14.236,31.391-29.364,45.794-45.337c14.398-15.968,27.903-32.777,40.349-50.352c13.486-19.041,25.919-39.068,34.883-60.74
			c4.315-10.431,8.088-21.371,10.031-32.537C398.772,47.352,399.036,36.909,395.351,27.669z"/>
		<path style="opacity:0.41;fill:#D7954B;" d="M313.599,25.725c-4.194-1.441-8.991-0.928-13.273-0.226
			c-3.316,0.543-6.602,1.294-9.858,2.188c-7.13,3.131-14.034,6.864-20.879,10.482c-12.494,6.604-24.937,13.121-36.901,20.695
			c-12.422,7.864-24.558,16.325-36.024,25.567c-11.4,9.188-22.509,18.747-33.341,28.616c-21.771,19.833-42.594,40.861-62.097,62.992
			c-19.46,22.084-37.144,45.717-53.512,70.23c-7.298,10.93-14.707,21.792-20.642,33.57c-5.727,11.364-10.37,23.855-10.392,36.769
			c2.621-2.972,4.885-6.239,6.921-9.648c4.795-8.028,8.489-16.661,12.854-24.925c4.664-8.829,10.582-16.904,16.628-24.8
			c6.75-8.816,13.902-17.304,21.174-25.679c6.997-8.058,13.979-16.143,21.125-24.066c13.689-15.179,28.134-29.665,43.407-43.207
			c15.15-13.433,31.11-25.925,47.796-37.336c17.048-11.657,34.769-22.042,52.657-32.302c17.839-10.232,35.692-20.605,52.12-33.086
			c5.156-3.917,10.395-7.841,15.315-12.062c2.571-2.206,5.067-4.528,7.296-7.094c1.966-2.263,3.944-4.858,4.75-7.813
			C319.835,30.521,317.339,27.009,313.599,25.725z"/>
		<path style="opacity:0.54;fill:#D7954B;" d="M177.233,255.749c-3.061-1.685-6.403-2.832-9.741-3.806
			c-8.736-2.549-17.812-3.927-26.823-5.021c-8.891-1.079-17.825-1.8-26.766-2.296c-5.235-0.29-10.483-0.551-15.727-0.584
			c-2.293-0.014-4.606,0.181-6.895,0.322c-3.206,0.198-6.409,0.457-9.604,0.792c-6.836,0.715-13.647,1.769-20.341,3.362
			c-7.271,1.731-14.764,4.131-21.489,7.789c-0.333,0.277-0.662,0.559-0.988,0.845c0.028-0.02,0.059-0.047,0.084-0.065
			c0.398-0.282,0.886,0.367,0.518,0.68c-0.059,0.05-0.117,0.103-0.175,0.154c0.288-0.143,0.575-0.288,0.863-0.427
			c0.495-0.237,0.927,0.51,0.431,0.747c-1.276,0.612-2.548,1.276-3.795,1.996c-1.49,1.439-2.966,2.89-4.646,4.115
			c-0.327,0.239-0.802-0.219-0.599-0.56c-3.054,2.445-5.689,5.373-7.46,8.922c3.019,1.106,6.653-0.092,9.572-0.957
			c1.736-0.514,3.461-1.089,5.228-1.485c2.059-0.462,4.221-0.571,6.31-0.862c4.544-0.632,9.075-1.371,13.639-1.842
			c9.675-0.999,19.419-1.594,29.139-1.903c9.721-0.309,19.449-0.3,29.172-0.085c4.851,0.107,9.701,0.266,14.549,0.463
			c3.22,0.131,6.477,0.138,9.68,0.522c10.014,1.198,19.982,3.326,30.116,3.052c2.212-0.06,4.458-0.229,6.604-0.81
			c1.479-0.401,3.155-1.039,4.052-2.38c1.152-1.724,1.426-4.008,0.474-5.875C181.501,258.367,179.306,256.891,177.233,255.749z"/>
		<path style="opacity:0.54;fill:#D7954B;" d="M210.919,181.729c-4.115-1.334-8.35-2.191-12.554-3.171
			c-6.011-1.4-12.206-2.214-18.326-2.938c-6.305-0.745-12.627-1.203-18.956-1.68c-12.492-0.941-25.034-1.419-37.509,0.041
			c-3.069,0.359-6.101,0.9-9.151,1.385c-2.459,0.391-4.926,0.732-7.381,1.153c-5.018,0.86-10.229,1.97-14.612,4.717
			c-0.182,0.114-0.356,0.069-0.476-0.043c-0.109,0.057-0.22,0.108-0.328,0.165c-2.543,1.335-5.075,2.744-7.423,4.412
			c-0.821,0.584-1.641,1.204-2.328,1.949c-0.224,0.243-0.443,0.503-0.587,0.805c-0.086,0.18-0.117,0.374-0.09,0.463
			c0.032,0.105,0.136,0.226,0.377,0.342c0.323,0.155,0.725,0.228,1.089,0.275c1.459,0.188,2.974,0.052,4.43-0.091
			c2.972-0.292,5.933-0.786,8.893-1.188c3.183-0.432,6.366-0.857,9.553-1.259c6.288-0.796,12.588-1.509,18.904-2.039
			c12.663-1.062,25.332-1.229,38.01-0.322c12.354,0.883,24.489,3.526,36.68,5.596c6.149,1.044,12.375,2.07,18.608,2.412
			c1.671,0.092,3.862,0.332,5.407-0.487c1.691-0.897-0.168-3.098-0.924-3.985C219.33,184.844,215.042,183.065,210.919,181.729z"/>
		<path style="opacity:0.54;fill:#D7954B;" d="M350.259,54.776c-2.636-1.492-5.428-2.681-8.239-3.787
			c-3.478-1.368-6.926-2.796-10.492-3.922c-4.234-1.337-8.558-2.368-12.923-3.152c-8.735-1.57-17.659-2.216-26.522-2.371
			c-6.82-0.119-13.661-0.485-20.48-0.165c-4.206,0.198-8.612,0.632-12.73,1.865c0.985-0.074,1.97-0.122,2.953-0.124
			c0.551-0.001,0.549,0.864,0,0.866c-1.888,0.005-3.777,0.137-5.646,0.415c-0.286,0.042-0.57,0.105-0.855,0.153
			c-1.152,0.517-2.267,1.117-3.332,1.817c-0.463,0.304-0.891-0.446-0.431-0.748c0.222-0.146,0.45-0.282,0.677-0.421
			c-5.037,1.263-9.859,3.515-13.834,6.896c0.325,0.238,0.666,0.452,1.032,0.621c2.557,1.181,5.664,1.058,8.402,0.908
			c2.856-0.157,5.694-0.573,8.551-0.703c1.921-0.088,3.862,0.06,5.783,0.128c2.223,0.079,4.446,0.168,6.669,0.268
			c4.507,0.202,9.012,0.446,13.515,0.734c8.845,0.566,17.688,1.279,26.517,2.057c4.413,0.389,8.821,0.825,13.227,1.284
			c4.234,0.441,8.487,0.818,12.707,1.381c7.437,0.991,14.931,3.342,22.492,2.724c-0.146-0.403-0.317-0.795-0.537-1.166
			C355.295,57.856,352.693,56.153,350.259,54.776z"/>
		<path style="opacity:0.54;fill:#D7954B;" d="M290.721,115.024c-3.007-1.344-6.181-2.285-9.35-3.146
			c-7.982-2.169-15.959-4.248-24.107-5.686c-9.51-1.679-19.116-2.735-28.737-3.496c-9.305-0.736-18.578-1.112-27.911-0.811
			c-8.311,0.268-16.604,0.928-24.874,1.798c-6.687,2.151-13.232,5.018-18.745,9.396c0.443,0.146,0.891,0.275,1.348,0.373
			c3.532,0.753,7.287,0.422,10.843,0.037c3.895-0.422,7.758-1.089,11.646-1.563c4.473-0.545,9.004-0.732,13.5-0.973
			c5.235-0.28,10.476-0.47,15.718-0.56c5.325-0.091,10.652-0.08,15.977,0.046c5.206,0.123,10.428,0.28,15.616,0.752
			c9.769,0.888,19.396,2.852,28.982,4.895c9.344,1.991,18.695,4.034,28.187,5.165c-0.216-0.357-0.446-0.705-0.705-1.032
			C296.213,117.821,293.454,116.245,290.721,115.024z"/>
		<path style="opacity:0.54;fill:#D7954B;" d="M395.351,27.669c-8.586-21.529-35.133-23.426-54.767-21.558
			c-1.013,0.096-2.026,0.217-3.038,0.335c1.815,0.386,3.619,0.825,5.401,1.343c0.805,0.234,1.606,0.489,2.404,0.755
			c5.897,0.708,11.773,2.34,16.76,5.602c19.291,12.615,9.539,40.304,2.319,57.147c-9.254,21.585-21.06,42.142-34.077,61.604
			c-12.969,19.391-27.405,37.758-42.902,55.131c-15.771,17.68-32.646,34.337-50.334,50.038
			c-17.394,15.439-35.579,29.959-54.376,43.602c-9.334,6.774-18.869,13.236-28.41,19.704c-9.993,6.775-20.099,13.395-30.54,19.444
			c-20.766,12.031-43.433,22.331-67.504,24.598c-10.408,0.98-21.01,0.473-31.003-2.826c-6.865-2.266-13.537-5.844-17.845-11.617
			c1.268,5.663,3.436,11.112,6.621,15.916c5.791,8.733,14.557,14.334,24.581,16.788c22.573,5.526,45.275-5.133,65.505-14.134
			c19.577-8.711,38.739-18.388,57.385-28.993c18.672-10.62,36.823-22.187,54.335-34.676c17.39-12.402,34.153-25.716,50.167-39.896
			c16.078-14.236,31.391-29.364,45.794-45.337c14.398-15.968,27.903-32.777,40.349-50.352c13.486-19.041,25.919-39.068,34.883-60.74
			c4.315-10.431,8.088-21.371,10.031-32.537C398.772,47.352,399.036,36.909,395.351,27.669z"/>
		<path style="opacity:0.54;fill:#D7954B;" d="M395.351,27.669c-4.621-11.585-14.444-17.48-25.591-20.168
			c5.388,3.23,10.676,6.86,14.431,12.022c4.843,6.657,6.282,15.234,6.312,23.344c0.039,10.525-2.881,20.775-6.434,30.572
			c-3.319,9.151-7.104,18.069-11.716,26.632c-9.06,16.82-20.533,32.135-32.341,47.045c-5.966,7.533-12.035,14.981-17.979,22.533
			c-5.996,7.619-11.613,15.544-17.741,23.054c-12.788,15.674-27.31,29.805-42.346,43.235
			c-14.927,13.333-30.275,26.265-45.746,38.943c-16.057,13.158-34.762,22.092-51.672,33.949
			c-8.392,5.884-16.421,12.311-25.127,17.727c-4.34,2.7-8.769,4.947-13.528,6.78c-5.065,1.95-10.227,3.624-15.297,5.56
			c-5.012,1.915-9.8,4.198-14.436,6.915c-4.367,2.559-8.627,5.312-13.105,7.672c-4.18,2.202-8.585,4.116-13.206,5.118
			c-4.619,1.002-9.367,1.239-14.079,1.237c-5.036-0.002-10.067-0.294-15.102-0.345c-4.031-0.041-8.044,0.236-12.066,0.401
			c3.148,1.649,6.523,2.915,10.06,3.781c22.573,5.526,45.276-5.133,65.505-14.134c19.577-8.711,38.739-18.388,57.384-28.993
			c18.673-10.62,36.823-22.187,54.335-34.676c17.39-12.402,34.153-25.716,50.167-39.896c16.078-14.236,31.391-29.364,45.794-45.337
			c14.398-15.968,27.903-32.777,40.349-50.352c13.486-19.041,25.919-39.068,34.883-60.74c4.315-10.431,8.088-21.371,10.031-32.537
			C398.772,47.352,399.036,36.909,395.351,27.669z"/>
		<path style="fill:#EAD7A2;" d="M172.871,247.03c-2.557-2.002-5.379-3.526-8.341-4.726c0.116-0.267,0.078-0.569-0.265-0.667
			c-5.119-1.455-10.25-2.898-15.467-3.949c-5.15-1.037-10.352-1.65-15.584-2.084c-10.504-0.87-21.232-0.687-31.718,0.334
			c-10.658,1.038-21.231,2.837-31.662,5.28c-8.613,2.017-17.298,4.259-25.319,8.11c-4.306,2.068-8.362,4.55-12.004,7.677
			c-3.684,3.163-6.583,6.981-8.768,11.308c-0.815,1.614,0.781,2.837,2.243,2.299c18.529-6.816,37.894-11,57.549-12.509
			c9.869-0.757,19.767-0.808,29.647-0.216c10.364,0.621,20.679,1.85,30.989,3.047c11.626,1.349,23.253,2.687,34.873,4.094
			c1.474,0.179,3.091-1.382,2.895-2.902C181.158,256.059,177.589,250.723,172.871,247.03z"/>
		<path style="fill:#EAD7A2;" d="M27.843,263.216c11.824-5.2,22.069-13.632,34.401-17.742c6.725-2.242,13.851-3.4,20.855-4.313
			c7.347-0.957,14.737-1.51,22.121-2.074c11.014-0.841,21.991-0.921,32.985,0.321c10.976,1.24,21.93,3.634,32.15,7.948
			c1.967,0.83,3.904,1.74,5.804,2.725c-1.007-1.11-2.111-2.132-3.286-3.052c-2.557-2.002-5.379-3.526-8.341-4.726
			c0.116-0.267,0.078-0.569-0.265-0.667c-5.119-1.455-10.25-2.898-15.467-3.949c-5.15-1.037-10.352-1.65-15.584-2.084
			c-10.504-0.87-21.232-0.687-31.718,0.334c-10.658,1.038-21.231,2.837-31.662,5.28c-8.613,2.017-17.298,4.259-25.319,8.11
			c-4.306,2.068-8.362,4.55-12.004,7.677c-2.346,2.014-4.37,4.296-6.098,6.803C26.892,263.615,27.371,263.424,27.843,263.216z"/>
		<path style="fill:#EAD7A2;" d="M224.064,183.55c-0.153-2.889-2.612-4.887-4.859-6.266c-2.241-1.375-4.606-2.548-7.042-3.557
			c-7.207-3.957-15.038-6.853-22.917-9.024c-9.275-2.556-18.771-4.016-28.371-4.466c-19.221-0.901-38.566,2.103-56.57,9.022
			c-5.109,1.963-10.085,4.256-14.924,6.827c-4.21,2.237-10.438,5.23-10.596,10.842c-0.037,1.314,0.831,1.804,2.025,1.467
			c12.808-3.617,26.108-5.762,39.337-6.976c13.343-1.224,26.774-1.344,40.137-0.363c13.324,0.978,26.572,3.039,39.567,6.182
			c3.278,0.793,6.54,1.654,9.783,2.585c3.119,0.895,6.529,1.915,9.675,0.532C221.966,189.187,224.227,186.635,224.064,183.55z"/>
		<path style="fill:#EAD7A2;" d="M83.519,180.036c0.061-0.014,0.122-0.018,0.182-0.016c1.268-0.515,2.535-1.032,3.802-1.55
			c5.157-2.106,10.319-4.208,15.588-6.011c5.079-1.738,10.269-3.12,15.512-4.25c10.478-2.26,21.166-3.491,31.866-3.913
			c5.362-0.212,10.689-0.203,16.036,0.286c5.242,0.48,10.453,1.294,15.606,2.38c10.178,2.144,20.272,5.158,29.852,9.261
			c3.929,1.683,7.785,3.524,11.626,5.4c-0.847-1.884-2.675-3.291-4.383-4.339c-2.241-1.375-4.606-2.548-7.042-3.557
			c-7.207-3.957-15.038-6.853-22.917-9.024c-9.275-2.556-18.771-4.016-28.372-4.466c-19.221-0.901-38.566,2.104-56.57,9.022
			c-5.109,1.964-10.085,4.256-14.924,6.827c-2.215,1.176-4.981,2.567-7.135,4.434C82.66,180.333,83.089,180.131,83.519,180.036z"/>
		<path style="fill:#EAD7A2;" d="M294.823,115.551c-3.604-7.765-11.812-12.929-20.089-15.496
			c-28.592-8.868-63.101-12.381-91.987-3.462c-7.693,2.376-15.082,6.003-21.189,11.362c-1.128,0.99-1.05,3.495,0.883,3.176
			c43.802-7.225,90.707-3.098,133.569,7.674C295.705,117.674,295.305,116.589,294.823,115.551z"/>
		<path style="fill:#EAD7A2;" d="M161.93,109.113c1.183-0.775,2.466-1.396,3.745-1.987c3.455-1.596,7.028-2.931,10.607-4.208
			c3.022-1.078,6.063-2.102,9.12-3.072c1.799-0.57,3.627-0.949,5.477-1.319c3.383-0.676,6.788-1.24,10.21-1.671
			c6.812-0.858,13.693-1.163,20.551-0.795c6.492,0.348,12.958,1.335,19.38,2.33c11.261,1.744,22.484,4.088,33.201,8.073
			c7.48,2.782,14.591,6.393,21.274,10.723c-0.202-0.557-0.426-1.103-0.674-1.636c-3.604-7.765-11.812-12.929-20.089-15.496
			c-28.592-8.868-63.101-12.381-91.987-3.461c-7.693,2.376-15.082,6.003-21.189,11.362c-0.531,0.466-0.791,1.267-0.719,1.951
			C161.187,109.598,161.588,109.337,161.93,109.113z"/>
		<path style="fill:#EAD7A2;" d="M352.861,54.071c-3.057-6.587-10.02-10.967-17.04-13.144c-24.253-7.521-53.524-10.501-78.025-2.936
			c-6.525,2.015-12.793,5.092-17.973,9.638c-0.957,0.84-0.891,2.964,0.749,2.694c37.154-6.128,76.94-2.628,113.296,6.509
			C353.608,55.872,353.27,54.952,352.861,54.071z"/>
		<path style="fill:#EAD7A2;" d="M241.964,47.174c9.071-4.484,18.917-7.24,28.901-8.611c10.182-1.399,20.547-1.394,30.74-0.101
			c8.863,1.124,17.689,3.171,26.255,5.72c8.652,2.575,17.168,5.823,25.116,10.166c-0.04-0.091-0.073-0.186-0.115-0.277
			c-3.057-6.587-10.02-10.967-17.04-13.144c-24.252-7.522-53.524-10.502-78.025-2.936c-6.525,2.015-12.793,5.091-17.973,9.637
			c-0.276,0.242-0.463,0.591-0.556,0.959C240.159,48.103,241.054,47.624,241.964,47.174z"/>
	</g>
	<g>
		<path style="opacity:0.54;fill:#D7954B;" d="M182.796,138.106c-0.041-0.199-0.087-0.4-0.157-0.59
			c-0.071-0.192-0.211-0.367-0.33-0.525c-0.168-0.223-0.423-0.391-0.661-0.521c-0.256-0.14-0.563-0.229-0.854-0.24
			c-0.432-0.016-0.758,0.015-1.171,0.162c-0.201,0.072-0.421,0.188-0.599,0.304c-0.013,0.008-0.025,0.019-0.038,0.028
			c-0.152,0.11-0.375,0.283-0.507,0.417c-0.259,0.265-0.467,0.571-0.635,0.901c-0.049,0.048-0.104,0.088-0.15,0.14
			c-0.266,0.304-0.517,0.644-0.639,1.038c-0.12,0.387-0.166,0.71-0.156,1.115c0.007,0.287,0.087,0.583,0.188,0.849
			c0.096,0.251,0.257,0.493,0.434,0.69c0.123,0.136,0.282,0.237,0.431,0.339c0.077,0.052,0.156,0.094,0.244,0.125
			c0.172,0.059,0.362,0.123,0.548,0.134c0.394,0.024,0.688-0.028,1.064-0.144c0.238-0.073,0.46-0.207,0.678-0.323
			c0.123-0.065,0.243-0.136,0.358-0.217c0.326-0.229,0.651-0.488,0.911-0.795c0.17-0.201,0.367-0.42,0.505-0.654
			c0.137-0.231,0.277-0.476,0.363-0.732c0.079-0.236,0.161-0.491,0.182-0.743C182.827,138.618,182.846,138.351,182.796,138.106z"/>
		<path style="opacity:0.54;fill:#D7954B;" d="M222.466,147.815c0.001-0.044,0.002-0.089,0.003-0.133
			c-0.025-0.094-0.051-0.188-0.076-0.282c-0.057-0.143-0.149-0.249-0.277-0.32c-0.071-0.07-0.156-0.111-0.255-0.123
			c-0.093-0.041-0.191-0.054-0.292-0.038c-0.107-0.011-0.212,0.003-0.312,0.044c-0.114,0.018-0.219,0.059-0.316,0.124
			c-0.17,0.075-0.32,0.182-0.449,0.321c-0.08,0.098-0.159,0.195-0.239,0.293c-0.055,0.105-0.109,0.211-0.164,0.316
			c-0.029,0.107-0.058,0.214-0.087,0.321c-0.002,0.103-0.004,0.207-0.007,0.31l0.076,0.282c0.057,0.143,0.149,0.249,0.277,0.32
			c0.071,0.07,0.156,0.111,0.255,0.123c0.098,0.038,0.199,0.048,0.302,0.046c0.077,0.02,0.155,0.04,0.232,0.06
			c0.174,0.019,0.342-0.005,0.504-0.07c0.185-0.074,0.348-0.182,0.489-0.325c0.142-0.141,0.251-0.306,0.326-0.492
			c0.066-0.164,0.091-0.334,0.075-0.51C222.511,147.992,222.488,147.903,222.466,147.815z"/>
		<path style="opacity:0.54;fill:#D7954B;" d="M236.625,135.883c-0.897,0-1.745,0.518-2.075,1.396
			c-0.244,0.649-0.075,1.776,0.831,1.776c0.897,0,1.745-0.517,2.075-1.396C237.7,137.01,237.531,135.883,236.625,135.883z"/>
		<path style="opacity:0.54;fill:#D7954B;" d="M264.938,122.046c-0.026-0.186-0.092-0.426-0.248-0.55
			c-0.088-0.07-0.178-0.14-0.276-0.195c-0.022-0.012-0.045-0.022-0.068-0.03c-0.089-0.032-0.19-0.06-0.282-0.082
			c-0.013-0.003-0.027-0.006-0.04-0.007c-0.055-0.006-0.123-0.001-0.171,0c-0.053,0-0.113-0.004-0.168,0.004
			c-0.223,0.036-0.421,0.115-0.611,0.24c-0.195,0.129-0.37,0.306-0.497,0.504c-0.078,0.122-0.152,0.296-0.193,0.46
			c-0.069,0.085-0.139,0.17-0.181,0.274c-0.05,0.123-0.068,0.25-0.056,0.382c0,0.029,0.001,0.058,0.002,0.088
			c0.003,0.082,0.025,0.164,0.06,0.239c0.073,0.156,0.1,0.161,0.212,0.241c0.038,0.027,0.076,0.055,0.115,0.082
			c0.063,0.043,0.13,0.082,0.201,0.11c0.102,0.04,0.208,0.069,0.315,0.093c0.112,0.025,0.258,0.013,0.357,0.008
			c0.015-0.001,0.03-0.002,0.045-0.004c0.103-0.015,0.208-0.05,0.307-0.079c0.132-0.038,0.255-0.111,0.372-0.185
			c0.31-0.196,0.58-0.517,0.709-0.867c0.042-0.113,0.081-0.235,0.093-0.357c0.001-0.007,0.001-0.015,0.001-0.022
			c0.005-0.084,0.009-0.214,0.006-0.297C264.941,122.077,264.94,122.062,264.938,122.046z"/>
		<path style="opacity:0.54;fill:#D7954B;" d="M246.875,70.836c-0.086-0.248-0.258-0.483-0.419-0.68
			c-0.171-0.209-0.412-0.375-0.638-0.51c-0.231-0.138-0.515-0.21-0.776-0.25c-0.898-0.138-1.786,0.281-2.425,0.894
			c-0.311,0.297-0.623,0.751-0.755,1.167c-0.064,0.202-0.137,0.419-0.155,0.635c-0.017,0.208-0.03,0.432-0.003,0.641
			c0.027,0.208,0.093,0.419,0.158,0.616c0.026,0.08,0.06,0.157,0.101,0.229c0.138,0.244,0.301,0.509,0.526,0.684
			c0.144,0.112,0.245,0.184,0.345,0.242c0.059,0.066,0.111,0.141,0.181,0.19c0.226,0.162,0.533,0.238,0.811,0.247
			c0.131,0.004,0.279,0.017,0.407-0.007c0.145-0.028,0.288-0.071,0.429-0.114c0.091-0.027,0.178-0.061,0.264-0.103
			c0.409-0.197,0.74-0.411,1.075-0.727c0.337-0.317,0.562-0.69,0.767-1.1c0.137-0.275,0.228-0.591,0.251-0.898
			C247.052,71.559,247.018,71.248,246.875,70.836z"/>
		<path style="opacity:0.54;fill:#D7954B;" d="M298.026,76.228c-0.764,0-1.477,0.44-1.762,1.185
			c-0.21,0.551-0.061,1.508,0.706,1.508c0.764,0,1.477-0.44,1.762-1.186C298.942,77.185,298.793,76.228,298.026,76.228z"/>
		<path style="opacity:0.54;fill:#D7954B;" d="M341.19,13.793c-0.033-0.211-0.092-0.435-0.196-0.625
			c-0.221-0.404-0.412-0.564-0.782-0.812c-0.474-0.318-1.1-0.428-1.663-0.432c-0.806-0.006-1.6,0.105-2.344,0.445
			c-0.795,0.364-1.569,0.859-2.137,1.541c-0.358,0.43-0.734,0.916-0.792,1.504c-0.048,0.486,0.02,0.972,0.373,1.341
			c0.641,0.67,1.652,0.899,2.558,0.736c0.137,0.055,0.275,0.107,0.425,0.143c0.674,0.161,1.462,0.024,2.09-0.249
			c0.996-0.434,1.789-1.164,2.248-2.168C341.166,14.793,341.262,14.259,341.19,13.793z"/>
		<path style="opacity:0.54;fill:#D7954B;" d="M313.767,21.665c-0.857,0-1.667,0.494-1.983,1.334
			c-0.233,0.62-0.072,1.697,0.794,1.697c0.858,0,1.667-0.494,1.983-1.334C314.795,22.742,314.633,21.665,313.767,21.665z"/>
		<path style="opacity:0.54;fill:#D7954B;" d="M154.38,133.055c-0.034-0.074-0.083-0.135-0.139-0.187
			c-0.029-0.023-0.051-0.052-0.076-0.078c-0.003-0.005-0.005-0.009-0.008-0.014c-0.003-0.005-0.007-0.01-0.01-0.015
			c-0.006-0.013-0.013-0.025-0.017-0.039c-0.002-0.007-0.004-0.015-0.006-0.022c-0.072-0.106-0.144-0.212-0.215-0.317
			c-0.104-0.074-0.207-0.148-0.311-0.222c-0.184-0.092-0.376-0.127-0.576-0.105c-0.144-0.015-0.283,0.004-0.417,0.058
			c-0.153,0.024-0.293,0.079-0.422,0.165c-0.153,0.061-0.288,0.151-0.404,0.269c-0.207,0.148-0.379,0.332-0.515,0.552
			c-0.011,0.015-0.02,0.03-0.03,0.046c-0.082,0.132-0.18,0.325-0.243,0.468c-0.071,0.164-0.117,0.354-0.15,0.528
			c-0.008,0.043-0.012,0.084-0.014,0.127c-0.004,0.071-0.01,0.157-0.012,0.242c-0.16,0.087-0.309,0.2-0.417,0.333
			c-0.129,0.159-0.249,0.361-0.27,0.571c-0.019,0.194-0.007,0.479,0.168,0.605c0.126,0.09,0.245,0.188,0.392,0.239
			c0.15,0.052,0.288,0.072,0.436,0.107c0.194,0.053,0.398,0.069,0.594,0.032c0.303-0.057,0.552-0.163,0.814-0.303
			c0.092-0.008,0.182-0.024,0.27-0.06c0.086-0.012,0.169-0.035,0.249-0.069c0.244-0.089,0.46-0.221,0.648-0.398
			c0.218-0.156,0.399-0.35,0.543-0.582c0.077-0.148,0.154-0.297,0.231-0.445c0.116-0.286,0.16-0.583,0.131-0.89
			C154.601,133.385,154.51,133.247,154.38,133.055z"/>
		<path style="opacity:0.54;fill:#D7954B;" d="M131.068,152.28c-0.057-0.144-0.151-0.252-0.281-0.324
			c-0.112-0.099-0.244-0.154-0.398-0.165l-0.309,0.003c-0.231,0.036-0.443,0.119-0.638,0.25c-0.098,0.081-0.197,0.161-0.295,0.242
			c-0.178,0.177-0.314,0.382-0.408,0.616c-0.1,0.204-0.201,0.407-0.301,0.611c-0.07,0.155-0.1,0.315-0.091,0.482
			c-0.018,0.153,0.007,0.3,0.074,0.442c0.057,0.144,0.151,0.252,0.28,0.324c0.112,0.099,0.244,0.154,0.398,0.165
			c0.103-0.001,0.206-0.002,0.309-0.003c0.231-0.036,0.443-0.119,0.638-0.25c0.099-0.081,0.197-0.161,0.295-0.242
			c0.178-0.177,0.314-0.382,0.408-0.616c0.1-0.204,0.201-0.408,0.301-0.611c0.07-0.155,0.1-0.315,0.091-0.482
			C131.16,152.57,131.135,152.422,131.068,152.28z"/>
		<path style="opacity:0.54;fill:#D7954B;" d="M217.717,118.267c-0.031-0.199-0.122-0.371-0.271-0.515l-0.316-0.226
			c-0.254-0.113-0.519-0.148-0.794-0.105c-0.144,0.038-0.289,0.077-0.433,0.115c-0.16,0.064-0.309,0.145-0.45,0.239
			c-0.062,0.017-0.124,0.022-0.186,0.042c-0.051,0.017-0.1,0.037-0.148,0.06c-0.144,0.07-0.292,0.141-0.427,0.228
			c-0.147,0.094-0.279,0.215-0.412,0.327c-0.051,0.043-0.098,0.09-0.146,0.136c-0.148,0.138-0.262,0.298-0.343,0.481
			c-0.096,0.156-0.156,0.326-0.18,0.511c-0.002,0.11-0.005,0.221-0.007,0.331c0.022,0.214,0.107,0.398,0.253,0.554
			c0.181,0.212,0.421,0.354,0.68,0.442c0.151,0.099,0.314,0.174,0.502,0.197c0.295,0.032,0.58-0.008,0.856-0.12
			c0.18-0.08,0.357-0.174,0.528-0.272c0.035-0.02,0.069-0.041,0.102-0.064c0.165-0.118,0.325-0.253,0.476-0.388
			c0.033-0.029,0.064-0.06,0.093-0.093c0.189-0.176,0.334-0.381,0.437-0.615c0.123-0.199,0.199-0.416,0.23-0.652
			C217.803,118.669,217.789,118.464,217.717,118.267z"/>
		<path style="opacity:0.54;fill:#D7954B;" d="M220.152,78.222c-0.032-0.201-0.123-0.374-0.273-0.519
			c-0.142-0.154-0.312-0.248-0.51-0.283c-0.196-0.076-0.399-0.093-0.61-0.051c-0.032,0.005-0.061,0.019-0.093,0.025
			c-0.07-0.011-0.127-0.019-0.322,0.015c-0.001,0-0.001,0-0.002,0.001c-0.074,0.001-0.149,0.001-0.223,0.002
			c-0.191,0.023-0.367,0.084-0.528,0.184c-0.127,0.051-0.24,0.126-0.337,0.224c-0.118,0.079-0.217,0.177-0.296,0.296
			c-0.098,0.097-0.173,0.21-0.224,0.339c-0.1,0.163-0.163,0.34-0.188,0.533c-0.003,0.014-0.002,0.028-0.004,0.043
			c-0.016,0.059-0.031,0.119-0.044,0.171c-0.003,0.012-0.006,0.024-0.008,0.035c-0.002,0.011-0.004,0.021-0.005,0.032
			c-0.034,0.222-0.029,0.597,0.099,0.799c0.073,0.115,0.16,0.264,0.26,0.376c0.004,0.004,0.007,0.009,0.011,0.012
			c0.003,0.003,0.006,0.006,0.009,0.009l0.316,0.226c0.125,0.042,0.265,0.079,0.392,0.114c0.007,0.002,0.014,0.004,0.021,0.006
			c0.028,0.007,0.058,0.011,0.087,0.012c0.152,0.003,0.303,0.006,0.454-0.005c0.014-0.001,0.029-0.003,0.043-0.006
			c0.007-0.001,0.014-0.003,0.021-0.005c0.145-0.038,0.29-0.077,0.436-0.116c0.004-0.001,0.007-0.002,0.011-0.003
			c0.015-0.005,0.03-0.01,0.045-0.017c0.314-0.126,0.591-0.31,0.831-0.552c0.11-0.134,0.219-0.269,0.328-0.403
			c0.178-0.266,0.293-0.558,0.344-0.875C220.24,78.628,220.225,78.421,220.152,78.222z"/>
		<path style="opacity:0.54;fill:#D7954B;" d="M76.888,207.504c-0.077-0.35-0.173-0.748-0.483-0.972
			c-0.168-0.183-0.37-0.295-0.606-0.336c-0.233-0.091-0.475-0.111-0.726-0.06c-0.173,0.046-0.346,0.092-0.519,0.137
			c-0.374,0.15-0.703,0.368-0.988,0.656c-0.082,0.088-0.157,0.19-0.23,0.279c-0.053,0.065-0.164,0.185-0.226,0.283
			c-0.009,0.015-0.017,0.031-0.026,0.046c-0.093,0.165-0.217,0.375-0.284,0.552c-0.008,0.021-0.015,0.042-0.022,0.063
			c-0.054,0.166-0.113,0.379-0.148,0.55c-0.009,0.045-0.013,0.088-0.016,0.133c-0.01,0.195-0.032,0.405-0.004,0.6
			c0.003,0.022,0.008,0.044,0.013,0.066c0.034,0.154,0.081,0.338,0.131,0.486c0.015,0.043,0.032,0.082,0.054,0.121
			c0.076,0.132,0.186,0.288,0.277,0.41c0.016,0.022,0.032,0.042,0.05,0.062c0.168,0.183,0.37,0.295,0.606,0.336
			c0.232,0.091,0.475,0.111,0.726,0.06c0.009-0.001,0.017-0.005,0.026-0.006c0.036,0.011,0.072,0.023,0.109,0.027
			c0.025,0.003,0.05,0.004,0.075,0.004c0.154,0.102,0.329,0.162,0.518,0.129c0.22-0.038,0.411-0.134,0.584-0.275
			c0.173-0.142,0.338-0.331,0.413-0.548c0.048-0.139,0.09-0.32,0.074-0.483c0.033-0.04,0.066-0.08,0.099-0.121
			c0.172-0.258,0.282-0.541,0.354-0.839c0.003-0.008,0.007-0.015,0.01-0.023c0.06-0.187,0.118-0.387,0.155-0.58
			c0.006-0.031,0.009-0.063,0.011-0.095C76.912,207.976,76.934,207.714,76.888,207.504z"/>
		<path style="opacity:0.54;fill:#D7954B;" d="M94.075,202.415c-0.951,0-1.829,0.547-2.186,1.471
			c-0.263,0.683-0.074,1.87,0.876,1.87c0.951,0,1.829-0.547,2.186-1.47C95.214,203.603,95.025,202.415,94.075,202.415z"/>
		<path style="opacity:0.54;fill:#D7954B;" d="M160.007,222.87c-0.079-0.116-0.157-0.233-0.236-0.349
			c-0.089-0.194-0.229-0.338-0.42-0.431c-0.2-0.088-0.407-0.116-0.623-0.082c-0.113,0.03-0.227,0.06-0.339,0.09
			c-0.245,0.098-0.46,0.241-0.646,0.429c-0.148,0.138-0.262,0.299-0.343,0.482c-0.096,0.156-0.156,0.327-0.18,0.512
			c-0.035,0.218-0.011,0.429,0.074,0.633c0.089,0.194,0.229,0.338,0.42,0.431c0.115,0.08,0.23,0.16,0.345,0.24
			c0.094,0.027,0.187,0.054,0.281,0.081c0.162,0.024,0.319,0.008,0.47-0.046c0.115-0.018,0.222-0.06,0.319-0.125
			c0.172-0.076,0.323-0.184,0.454-0.324c0.081-0.099,0.161-0.198,0.242-0.297c0.055-0.106,0.111-0.213,0.166-0.319
			c0.07-0.155,0.1-0.315,0.091-0.482C160.098,223.16,160.074,223.012,160.007,222.87z"/>
		<path style="opacity:0.54;fill:#D7954B;" d="M166.444,192.286c-0.486-0.929-1.526-1.226-2.499-1.105
			c-1.692,0.209-3.434,1.324-4.046,2.981c-0.128,0.347-0.192,0.706-0.197,1.061c-0.459,0.518-0.786,1.147-0.77,1.866
			c0.015,0.646,0.405,1.105,0.93,1.417c-0.082-0.058-0.164-0.117-0.246-0.175c0.251,0.272,0.565,0.404,0.927,0.436
			c0.287,0.026,0.586,0.021,0.872-0.021c0.646-0.094,1.214-0.353,1.771-0.689c0.58-0.35,1.121-0.801,1.605-1.276
			c0.482-0.473,0.956-1.008,1.291-1.6C166.563,194.332,166.934,193.222,166.444,192.286z"/>
		<path style="opacity:0.54;fill:#D7954B;" d="M43.041,291.724c-0.137-0.736-0.408-1.315-0.862-1.902
			c-0.898-1.163-2.529-1.445-3.836-0.896c-1.196,0.503-2.273,1.684-2.643,3.004c-0.32,0.461-0.593,0.951-0.804,1.462
			c-0.449,1.086-0.727,2.428-0.378,3.577c0.373,1.23,1.587,1.652,2.744,1.582c1.078-0.066,2.154-0.599,2.997-1.257
			c1.093-0.854,2.128-2.007,2.547-3.368C43.022,293.221,43.179,292.464,43.041,291.724z"/>
		<path style="opacity:0.54;fill:#D7954B;" d="M55.769,287.322c-0.014-0.129-0.064-0.24-0.152-0.333
			c-0.088-0.167-0.222-0.289-0.401-0.365c-0.089-0.038-0.178-0.077-0.267-0.115c-0.172-0.073-0.33-0.142-0.525-0.17
			c-0.307-0.033-0.604,0.009-0.891,0.125c-0.155,0.073-0.307,0.152-0.457,0.237c-0.139,0.113-0.277,0.227-0.416,0.34
			c-0.119,0.137-0.233,0.278-0.344,0.422c-0.004,0.005-0.008,0.011-0.013,0.016c-0.185,0.243-0.219,0.399-0.289,0.657
			c-0.062,0.231-0.119,0.385-0.066,0.649c0.001,0.006,0.002,0.011,0.003,0.017c0.014,0.069,0.033,0.138,0.055,0.205
			c0.033,0.208,0.127,0.388,0.283,0.539c0.109,0.086,0.222,0.167,0.339,0.241c0.267,0.118,0.545,0.155,0.833,0.11
			c0.205-0.027,0.41-0.105,0.608-0.173c0.112-0.039,0.223-0.077,0.335-0.116c0.134-0.07,0.268-0.139,0.402-0.209
			c0.125-0.102,0.25-0.205,0.374-0.307c0.102-0.125,0.204-0.251,0.307-0.376c0.133-0.186,0.222-0.389,0.266-0.611
			c0.053-0.13,0.073-0.265,0.06-0.405C55.835,287.571,55.82,287.444,55.769,287.322z"/>
		<path style="opacity:0.54;fill:#D7954B;" d="M87.634,278.482c-0.788,0-1.524,0.454-1.817,1.222
			c-0.217,0.568-0.063,1.555,0.728,1.555c0.788,0,1.524-0.454,1.817-1.223C88.579,279.469,88.426,278.482,87.634,278.482z"/>
	</g>
</g>
</svg>