<?xml version="1.0" encoding="UTF-8"?>
<svg xmlns="http://www.w3.org/2000/svg" xmlns:xlink="http://www.w3.org/1999/xlink" width="3000" height="3000" viewBox="0 0 3000 3000">
<rect x="-300" y="-300" width="3600" height="3600" fill="rgb(97.264099%, 97.65625%, 98.4375%)" fill-opacity="1"/>
<path fill-rule="nonzero" fill="rgb(100%, 62.304688%, 0%)" fill-opacity="1" d="M 1038.371094 2446.179688 C 1113.671875 2444.832031 1185.289062 2413.457031 1237.25 2359.066406 L 2347.511719 1254.351562 C 2399.941406 1199.949219 2428.300781 1126.828125 2426.230469 1051.398438 C 2424.160156 975.960938 2391.828125 904.511719 2336.488281 853.070312 L 2198.738281 722.980469 C 2003.601562 540.011719 1713.28125 501.410156 1476.871094 627 C 1420.351562 658.359375 1368.949219 698.140625 1324.460938 744.96875 L 767.59375 1331.839844 C 714.636719 1386.210938 671.019531 1448.921875 638.503906 1517.441406 C 511.652344 1791.589844 574.574219 2115.921875 794.796875 2323.015625 L 839.566406 2365.292969 C 892.484375 2417.445312 963.976562 2446.53125 1038.371094 2446.179688 "/>
<path fill-rule="nonzero" fill="rgb(100%, 38.818359%, 0%)" fill-opacity="1" d="M 2344.25 860.558594 C 2452.410156 969.121094 2453.859375 1144 2347.511719 1254.351562 L 1237.25 2359.066406 C 1185.289062 2413.457031 1113.671875 2444.832031 1038.371094 2446.179688 C 963.976562 2446.53125 892.484375 2417.445312 839.566406 2365.296875 L 794.796875 2323.019531 C 732.011719 2263.972656 680.636719 2193.917969 643.238281 2116.34375 L 2107.5 652.089844 C 2140.039062 672.851562 2170.589844 696.589844 2198.738281 722.980469 L 2336.488281 853.070312 C 2339.128906 855.511719 2341.710938 858.011719 2344.25 860.558594 "/>
<path fill-rule="nonzero" fill="rgb(100%, 80.076599%, 0%)" fill-opacity="1" d="M 640.363281 1513.550781 C 672.679688 1446.539062 715.644531 1385.179688 767.597656 1331.839844 L 1324.460938 744.96875 C 1367.859375 699.300781 1417.828125 660.320312 1472.730469 629.320312 L 1878.808594 1190.988281 C 1887.539062 1203.96875 1892.371094 1219.160156 1892.761719 1234.78125 C 1893.160156 1256.238281 1885.328125 1277.039062 1870.878906 1292.941406 C 1843.980469 1320.289062 1801.550781 1325.078125 1769.210938 1304.429688 L 1186.628906 914.460938 L 1177.011719 908.75 L 1183.351562 917.230469 L 1599.75 1485.78125 C 1608.25 1498.871094 1613.070312 1513.988281 1613.699219 1529.578125 C 1614.230469 1550.988281 1606.101562 1571.730469 1591.121094 1587.089844 C 1565.390625 1612.980469 1525.570312 1618.71875 1493.550781 1601.140625 L 906.96875 1211.949219 L 901.28125 1208.570312 L 903.613281 1212.039062 L 1319.988281 1779.929688 C 1328.648438 1792.941406 1333.480469 1808.109375 1333.941406 1823.71875 C 1334.539062 1845.210938 1326.691406 1866.089844 1312.058594 1881.878906 C 1284.800781 1908.21875 1242.980469 1912.410156 1211.019531 1892.019531 L 640.363281 1513.550781 "/>
<path fill-rule="evenodd" fill="rgb(100%, 63.867188%, 0%)" fill-opacity="1" d="M 1748.640625 1010.941406 L 1878.808594 1190.988281 C 1887.539062 1203.96875 1892.371094 1219.160156 1892.761719 1234.78125 C 1893.160156 1256.238281 1885.328125 1277.039062 1870.878906 1292.941406 C 1843.980469 1320.289062 1801.550781 1325.078125 1769.210938 1304.429688 L 1581.078125 1178.5 Z M 1461.949219 1297.628906 L 1599.75 1485.78125 C 1608.25 1498.871094 1613.070312 1513.988281 1613.699219 1529.578125 C 1614.230469 1550.988281 1606.101562 1571.730469 1591.121094 1587.089844 C 1565.390625 1612.980469 1525.570312 1618.71875 1493.550781 1601.140625 L 1292.101562 1467.480469 Z M 1176.019531 1583.570312 L 1319.988281 1779.929688 C 1328.648438 1792.941406 1333.480469 1808.109375 1333.941406 1823.71875 C 1334.539062 1845.210938 1326.691406 1866.089844 1312.058594 1881.878906 C 1284.800781 1908.21875 1242.980469 1912.410156 1211.019531 1892.019531 L 1004.519531 1755.058594 L 1176.019531 1583.570312 "/>
</svg>
