<svg xmlns="http://www.w3.org/2000/svg" viewBox="0 0 1000 1000" id="pancake">
  <g>
    <ellipse cx="500" cy="614.561" fill="#fff" rx="488.281" ry="201.183"></ellipse>
    <g opacity=".5">
      <ellipse cx="500" cy="614.561" fill="#feedd9" rx="488.281" ry="201.183"></ellipse>
    </g>
    <ellipse cx="500" cy="614.561" fill="#feedd9" rx="411.659" ry="160.068"></ellipse>
    <g>
      <path fill="#f9c86e" d="M836.5083,600.3551c0,69.7098-126.2104,127.3619-290.0933,136.6098-9.6844.5585-19.5083.9249-29.4545,1.1345-5.6186.1221-11.2721.1742-16.9606.1742-21.3753,0-42.2969-.8201-62.5554-2.3903-97.1399-7.4683-179.5526-32.0719-227.8868-65.8534-29.2798-20.4504-46.066-44.2689-46.066-69.6748,0-16.5942,7.1541-32.4904,20.2411-47.2175,7.3287-8.2362,16.5245-16.1056,27.3605-23.5215,11.9352-8.1663,25.8597-15.7916,41.529-22.7364,11.6038-5.1651,24.1499-9.9637,37.5333-14.326,3.2283-1.0818,6.5085-2.1113,9.8414-3.1233,25.3188-7.6777,53.3247-13.9419,83.3724-18.4789,0,.0175.0175,0,.0175,0,15.9835-2.4253,32.5603-4.3623,49.5908-5.7756,16.6464-1.3786,33.7467-2.251,51.196-2.5827,5.2348-.1046,10.5217-.1568,15.8264-.1568,41.0057,0,80.3014,3.0012,116.6308,8.515h.0175c26.4179,3.9959,51.2481,9.318,74.0544,15.7567,3.1409.8899,6.247,1.7973,9.3006,2.7222,3.3326,1.012,6.5956,2.0414,9.8412,3.1233h.0175c13.3834,4.3623,25.9295,9.1608,37.5333,14.326,2.4255,1.0816,4.816,2.1637,7.1541,3.2802,12.7727,6.0376,24.2894,12.5461,34.3751,19.4561,10.8359,7.4159,20.0142,15.2853,27.3428,23.5215,13.0869,14.727,20.2413,30.6233,20.2413,47.2175Z"></path>
      <ellipse cx="500.006" cy="596.304" fill="#e4881c" rx="297.262" ry="117.52"></ellipse>
      <ellipse cx="500.006" cy="596.304" fill="#ffdea5" rx="202.762" ry="75.348"></ellipse>
    </g>
    <g>
      <path fill="#f9c86e" d="M836.5083,505.9024c0,16.5942-7.1544,32.5079-20.2413,47.2352-6.5959,7.4159-14.6921,14.5351-24.1497,21.288-24.5684,17.554-58.2804,32.6998-98.4835,44.3036-.279.0871-.5583.157-.8375.2268-50.9691,14.6572-112.3204,23.6263-178.6102,24.7603-4.7112.0873-9.4401.1223-14.1862.1223-13.2963,0-26.4005-.3142-39.2957-.9423-8.6023-.4013-17.1001-.9423-25.4758-1.6227-3.7691-.2967-7.503-.6109-11.2199-.9598h-.0175c-42.9248-4.0658-82.7091-11.4992-117.6076-21.5847-40.2031-11.6038-73.9149-26.7321-98.4833-44.2861-9.4576-6.7703-17.554-13.8895-24.1673-21.3054-13.0869-14.7273-20.2411-30.6409-20.2411-47.2352,0-16.2279,6.8401-31.7924,19.4035-46.2579,7.2589-8.3757,16.4721-16.3848,27.3777-23.9403,10.5394-7.2764,22.6665-14.1513,36.2071-20.5028,11.1328-5.2173,23.225-10.1032,36.155-14.5703,5.9852-2.0938,12.1271-4.0828,18.4612-5.985,21.4277-6.4387,44.7748-11.883,69.6574-16.1231h.0173c21.2707-3.6296,43.6405-6.3863,66.8481-8.1661,20.2063-1.5532,41.0581-2.3733,62.381-2.3733,11.7782,0,23.3995.2443,34.8635.7329,33.1186,1.3958,64.8239,4.7636,94.383,9.8065h.0175c24.8651,4.24,48.212,9.6844,69.6397,16.1231,6.3343,1.9021,12.4937,3.8911,18.4789,5.985,7.503,2.6001,14.7096,5.3221,21.6369,8.1838,5.0081,2.0766,9.8416,4.2053,14.5179,6.3865,7.8347,3.6818,15.2157,7.5382,22.0906,11.5688,4.9732,2.8966,9.6844,5.8804,14.1166,8.934,10.8883,7.5554,20.1015,15.5646,27.3603,23.9403,12.5636,14.4655,19.4037,30.03,19.4037,46.2579Z"></path>
      <ellipse cx="500.006" cy="501.859" fill="#e4881c" rx="297.262" ry="117.52"></ellipse>
      <ellipse cx="500.006" cy="501.859" fill="#ffdea5" rx="202.762" ry="75.348"></ellipse>
    </g>
    <g>
      <path fill="#f9c86e" d="M836.5083,413.3691c0,16.2279-6.8402,31.8099-19.4037,46.2754-6.5959,7.5906-14.7445,14.8668-24.3241,21.7766-10.2602,7.3985-22.1255,14.3607-35.4045,20.817-3.2455,1.5879-6.5784,3.1233-9.9809,4.6416-8.4456,3.7514-17.3968,7.3111-26.802,10.6612-9.3178,3.3156-19.0896,6.4214-29.2624,9.3006-16.7861,4.7811-34.6891,8.934-53.5168,12.4064-1.1515.2094-2.3207.4188-3.4898.6281-41.1452,7.3461-86.5654,11.4293-134.3241,11.4293-.7677,0-1.5353,0-2.286-.0175-15.1109-.0349-29.9951-.4712-44.5652-1.3262-8.7071-.4886-17.2922-1.1168-25.7551-1.8847-21.41-1.9192-42.0351-4.6937-61.7004-8.201h-.0175c-20.1015-3.5944-39.1734-7.9567-57.0065-13.0345-10.173-2.8792-19.9446-5.985-29.2624-9.3006-9.4054-3.3501-18.3566-6.9098-26.7847-10.6612-17.3794-7.7301-32.63-16.2628-45.3854-25.4586-9.5795-6.9098-17.7457-14.186-24.3416-21.7766-12.5635-14.4655-19.4035-30.0475-19.4035-46.2754,0-15.5471,6.2817-30.4837,17.8332-44.4257,7.2064-8.6547,16.4546-16.9431,27.4999-24.7429,23.958-16.9084,56.4482-31.5483,95.0461-42.9078,10.9929-3.2455,22.4744-6.212,34.3924-8.8816,11.8306-2.6698,24.08-5.0603,36.7307-7.1192,12.4586-2.0591,25.2839-3.804,38.4405-5.2173,27.622-3.0189,56.6403-4.6243,86.5656-4.6243,18.0776,0,35.8233.5934,53.1328,1.7102,31.3911,2.0416,61.3343,5.8629,89.1832,11.2025h.0175c.9074.1742,1.7973.3489,2.7047.5408,17.9726,3.5073,35.0552,7.6602,51.0912,12.3889,25.7201,7.5731,48.7358,16.5942,68.3138,26.7673,5.5487,2.8964,10.8184,5.8802,15.8091,8.9512,3.8213,2.3383,7.4681,4.7461,10.9405,7.1893,11.0453,7.7998,20.276,16.0881,27.4825,24.7429,11.5514,13.9419,17.8333,28.8786,17.8333,44.4257Z"></path>
      <ellipse cx="500.006" cy="409.323" fill="#e4881c" rx="297.262" ry="117.52"></ellipse>
      <ellipse cx="500.006" cy="409.323" fill="#ffdea5" rx="202.762" ry="75.348"></ellipse>
    </g>
    <g>
      <path fill="#f9c86e" d="M836.5083,324.5178c0,15.5471-6.2819,30.4837-17.8333,44.4257-6.5956,7.922-14.9015,15.5471-24.7256,22.7539-4.7636,3.4898-9.8936,6.8924-15.3552,10.1728-7.6952,4.6765-16.0709,9.1084-25.0571,13.3312-7.0146,3.2979-14.3956,6.4387-22.1255,9.4399-1.3087.5236-2.6523,1.0297-3.9959,1.5358-12.9649,4.8682-26.8718,9.3353-41.5991,13.331-13.1044,3.5772-26.8367,6.7705-41.1452,9.5621h-.0175c-43.815,8.5678-92.8647,13.3664-144.6541,13.3664-5.3396,0-10.6265-.0524-15.8962-.1572-17.9551-.3314-35.5266-1.2563-52.6269-2.7222-26.6625-2.2508-52.173-5.793-76.1133-10.487h-.0175c-14.3085-2.7916-28.0585-5.985-41.1629-9.5621-14.7096-3.9957-28.6166-8.4628-41.5814-13.331h-.0175c-9.1958-3.4549-17.9029-7.1194-26.1042-10.9756-15.3727-7.2065-28.9307-15.0762-40.4122-23.4866-9.8414-7.2242-18.1472-14.8318-24.743-22.7713-11.5515-13.9419-17.8332-28.8786-17.8332-44.4257,0-68.4358,121.6037-125.2331,281.0545-136.069h.0175c18.0427-1.2216,36.5388-1.8672,55.4362-1.8672,1.71,0,3.4025,0,5.0952.0349h.0175c107.5396.6281,202.8298,21.9685,263.3263,54.7207,1.0642.5757,2.1288,1.1517,3.1757,1.7449,40.7963,22.806,64.8938,50.9693,64.8938,81.4356Z"></path>
      <ellipse cx="500.006" cy="320.459" fill="#e4881c" rx="297.262" ry="117.52"></ellipse>
      <ellipse cx="500.006" cy="320.459" fill="#ffdea5" rx="202.762" ry="75.348"></ellipse>
    </g>
    <g opacity=".67">
      <path fill="#ffce11" d="M647.1493,307.1906c-5.0431,13.7325-24.2545,26.1216-46.8513,36.6259-21.8986,10.2078-46.9732,18.6708-65.4346,24.9001-1.4831.5059-2.9139.9945-4.3099,1.4657-10.1728,3.4549-18.5658,8.3058-25.3538,14.169-4.0307,3.4724-7.503,7.3286-10.4171,11.4466h-.0175c-6.5435,9.1956-10.4695,19.8048-12.1446,30.9898-.541,3.5944-.855,7.2589-.9423,10.958-.2094,8.1314.6458,16.4198,2.4255,24.5337.0175.1048.0524.2094.0699.314,1.2214,5.5315,2.8617,10.9931,4.9031,16.2803.1397.3664.2792.7327.4188,1.0993.6109,1.553,1.1866,3.0885,1.6925,4.6241,4.2577,12.4586,5.6013,24.359,6.055,36.3816.0697,1.9368.1221,3.8911.157,5.8454.1572,7.9919.0524,16.0881.314,24.4638.2445,8.2884.8203,16.8558,2.3034,25.9121,1.5008,9.0737,3.8911,18.6009,7.7648,28.8087.8203,2.1637,1.5532,4.3972,2.1812,6.648.6284,2.1637,1.1692,4.3798,1.6229,6.6133,1.6229,7.8172,2.3556,16.0359,2.5999,24.4464.2618,9.1434-.0522,18.4963-.471,27.7618-.6808,14.6225-1.6056,29.0705-.9074,42.2272.4712,8.8117,1.6576,17.0652,4.1527,24.394,3.106,9.1608,8.2187,16.9082,16.4722,22.5967,40.0983,27.6919,26.7321,39.1385-55.3838,38.1964-82.1159-.9598-73.5311-20.0666-42.0177-61.1072.4886-.6456.9596-1.2738,1.4133-1.9019,6.4389-8.8643,9.475-16.5942,10.3824-23.8532,1.867-14.5526-4.694-27.2906-9.0388-43.8674-2.0766-7.8871-3.6468-16.6466-3.5597-26.8891.0175-1.2912.0524-2.5999.1221-3.9435.1921-4.4147.7157-9.1259,1.6403-14.134.4015-2.2161.7504-4.3448,1.0294-6.3863,2.8444-20.5727-.2616-32.8745-3.8911-43.6755-2.7394-8.2185-5.793-15.5648-6.7354-25.0573-.6281-6.2465-.3491-13.4184,1.5355-22.3523.1572-.7329.314-1.4657.4886-2.2159.7327-3.1409,1.6576-6.4913,2.7918-10.1032,4.9206-15.5997,6.0026-25.1444,5.4267-32.0195-.0175-.1221-.0175-.2441-.0349-.3664-.6454-6.805-2.9139-10.9582-4.6239-15.8438-.6109-1.7277-1.1345-3.5597-1.5008-5.6188-.9596-5.4963-.7327-12.7029,2.5303-24.4811.4188-1.4831.8725-3.0364,1.3783-4.659.2096-.6456.4188-1.3087.6458-1.9892,4.3448-13.2788,6.84-25.0396,6.7177-35.6661-.0173-2.1115-.1568-4.1879-.3838-6.212-.6629-5.7232-2.1986-11.0977-4.7461-16.1927-5.2173-10.4173-14.6222-19.6478-29.4194-28.2329-10.6964-6.1943-24.1846-12.0575-40.9186-17.7809-13.1042-4.4669-21.253-9.3875-25.7723-14.448-5.1476-5.7756-5.5839-11.7433-3.2455-17.4839,5.0776-12.4413,23.1028-23.7658,33.9561-29.6637,1.2039-.6631,2.3383-1.2565,3.3501-1.7799,3.106-1.6054,5.078-2.4953,5.078-2.4953,0,0,3.5944-.5932,9.9634-1.4831,3.385-.471,7.5554-1.0294,12.3889-1.6229,35.5965-4.432,106.9811-11.08,164.3019-2.4777,23.853,3.5597,45.2632,9.7715,60.6535,19.8922,6.8574,4.5018,11.8132,8.934,15.1283,13.2614.7504.9598,1.396,1.9194,1.9545,2.8617,3.8562,6.3166,4.275,12.4238,2.1113,18.2868Z"></path>
    </g>
    <path fill="#ffeac6" d="M513.3731 343.4431c61.1075-8.9039 172.8195-42.9662 113.6217-87.842-59.1979-44.8758-106.4083-83.4613-179.5032-67.7908-75.7121 16.2317-79.6261 38.2115-73.8973 89.7709 5.7288 51.5594 77.2415 74.9741 139.7788 65.8619zM467.5478 734.1839c-.1331 0-.2661-.0075-.3992-.0187-2.3987-.2174-4.1678-2.3387-3.9504-4.7375.0431-.4835 4.1978-48.8364-9.891-97.699-4.2783-14.8346-6.9113-25.878-8.2868-34.7552-.3692-2.3819 1.2612-4.61 3.6412-4.9792 2.3744-.3785 4.61 1.2612 4.9792 3.6412 1.3193 8.5042 3.8773 19.2047 8.0507 33.6757 14.5591 50.493 10.3801 98.8703 10.1945 100.9054-.2061 2.2638-2.1082 3.9673-4.3383 3.9673zM449.34 581.5692c-2.3744 0-4.3196-1.904-4.3589-4.2877-.1518-8.8528 1.2687-15.6235 3.064-24.1952.7327-3.4931 1.5629-7.4529 2.3669-11.9767.4235-2.3744 2.7173-3.9373 5.0579-3.5325 2.3725.4216 3.9541 2.6873 3.5325 5.0579-.8283 4.6569-1.6716 8.686-2.4175 12.241-1.7503 8.3505-3.0153 14.3848-2.8822 22.2556.0412 2.41-1.8777 4.3964-4.2858 4.4358-.0262.0019-.0506.0019-.0768.0019zM456.4331 525.3193c-.0881 0-.1743-.0037-.2642-.0075-2.4043-.1443-4.2371-2.2094-4.0947-4.6157 1.5742-26.3615.9295-55.2848.9239-55.5734-.0562-2.4081 1.8515-4.4058 4.2596-4.462 2.3856-.0843 4.4076 1.8496 4.462 4.2596.0075.2923.6615 29.5642-.9351 56.2968-.1387 2.3163-2.0614 4.1022-4.3514 4.1022z"></path>
    <path fill="#fff" d="M437.9436,299.5221c-61.4307-31.2842-36.9008-104.0736,30.2446-90.7064,67.1454,13.3673,130.1625,40.1018,84.3319,68.7459-45.8306,28.6441-11.4576,74.4747-114.5765,21.9605Z"></path>
  </g>
</svg>
