<svg xmlns="http://www.w3.org/2000/svg" xml:space="preserve" id="salmon" x="0" y="0" style="enable-background:new 0 0 1000 1000" version="1.1" viewBox="0 0 1000 1000">
  <g id="XMLID_51_">
    <path id="XMLID_4_" d="M847,297.1c-27.8-40.9-48.7-56.9-71.6-83.5c-22.9-26.6-116.2-92.9-205.8-103.5
		s-129.3,10.2-129.3,10.2s-41.5,20.6-86,50s-80.1,80.1-80.1,80.1c-24.5,30.1-67.5,110.9-83.9,173c-16.4,62.2-8.2,140.3-8.2,140.3
		s-3.7,11-11.9,37.2c-8.2,26.2-7.8,61.8,6.1,60.5c13.9-1.2,18-36.4,18-36.4s3.3,14.3,11.9,41.7c7.9,25.2,41.3,102.2,57.2,139.6
		c17.8,9,44.7,18.2,70,9.8c20.6-6.9,29.7-20,33.6-31.8c-5.1-5.8-10-12-14.4-19c-10.8-17.5-24.2-46.1-32.8-77.8l-0.1,0
		c0,0-51.2-79.5-45-150.1c6.1-70.6,38-165.1,143-241.8s263.3-38,315.4-22.7s43.6,44.8,57.1,57.1s57.7,22,57.7,22l0,0
		c6.6,0,12.9,0.1,16.6,0.5C874.8,354,874.8,338,847,297.1z" style="fill:#a7a3a4"></path>
    <g id="XMLID_65_">
      <ellipse id="XMLID_49_" cx="515.4" cy="139.6" rx="17.4" ry="7.8" style="fill:#595859"></ellipse>
      <ellipse id="XMLID_48_" cx="623.7" cy="193.1" rx="17.4" ry="7.8" style="fill:#595859"></ellipse>
      <ellipse id="XMLID_47_" cx="512.3" cy="211.2" rx="17.4" ry="7.8" style="fill:#595859"></ellipse>
      <ellipse id="XMLID_46_" cx="705" cy="195.9" rx="17.4" ry="7.8" style="fill:#595859" transform="rotate(30 705 195.832)"></ellipse>
      <ellipse id="XMLID_45_" cx="425.2" cy="176.6" rx="17.4" ry="7.8" style="fill:#595859" transform="rotate(-27.418 425.195 176.64)"></ellipse>
      <ellipse id="XMLID_44_" cx="380.7" cy="271.1" rx="17.4" ry="7.8" style="fill:#595859" transform="rotate(-27.418 380.707 271.142)"></ellipse>
      <ellipse id="XMLID_43_" cx="299.7" cy="272.1" rx="17.4" ry="7.8" style="fill:#595859" transform="rotate(-40.075 299.727 272.072)"></ellipse>
      <ellipse id="XMLID_42_" cx="299.1" cy="359.8" rx="17.4" ry="7.8" style="fill:#595859" transform="rotate(-52.492 299.077 359.8)"></ellipse>
      <ellipse id="XMLID_41_" cx="224.8" cy="434.7" rx="17.4" ry="7.8" style="fill:#595859" transform="rotate(-69.958 224.847 434.698)"></ellipse>
      <ellipse id="XMLID_40_" cx="244.2" cy="527.6" rx="17.4" ry="7.8" style="fill:#595859" transform="rotate(-80.538 244.15 527.634)"></ellipse>
      <ellipse id="XMLID_39_" cx="225.4" cy="622.4" rx="17.4" ry="7.8" style="fill:#595859" transform="rotate(-99.724 225.455 622.472)"></ellipse>
      <ellipse id="XMLID_38_" cx="282.5" cy="681.7" rx="17.4" ry="7.8" style="fill:#595859" transform="rotate(-99.724 282.551 681.69)"></ellipse>
      <ellipse id="XMLID_37_" cx="274.3" cy="763.3" rx="17.4" ry="7.8" style="fill:#595859" transform="rotate(-99.724 274.344 763.307)"></ellipse>
      <ellipse id="XMLID_36_" cx="326.8" cy="778.9" rx="17.4" ry="7.8" style="fill:#595859" transform="rotate(-99.724 326.812 778.955)"></ellipse>
      <ellipse id="XMLID_35_" cx="302.8" cy="728.7" rx="10.8" ry="4.8" style="fill:#595859" transform="rotate(-99.724 302.826 728.736)"></ellipse>
      <ellipse id="XMLID_34_" cx="249.3" cy="695.1" rx="10.8" ry="4.8" style="fill:#595859" transform="rotate(-99.724 249.344 695.122)"></ellipse>
      <ellipse id="XMLID_33_" cx="263.7" cy="631.3" rx="10.8" ry="4.8" style="fill:#595859" transform="rotate(-99.724 263.667 631.36)"></ellipse>
      <ellipse id="XMLID_32_" cx="251.5" cy="572.9" rx="10.8" ry="4.8" style="fill:#595859" transform="rotate(-99.724 251.538 572.91)"></ellipse>
      <ellipse id="XMLID_31_" cx="207.3" cy="542.8" rx="10.8" ry="4.8" style="fill:#595859" transform="rotate(-99.724 207.354 542.84)"></ellipse>
      <ellipse id="XMLID_30_" cx="259" cy="468.8" rx="10.8" ry="4.8" style="fill:#595859" transform="rotate(-80.538 259.033 468.76)"></ellipse>
      <ellipse id="XMLID_29_" cx="212.9" cy="482.4" rx="10.8" ry="4.8" style="fill:#595859" transform="rotate(-80.538 212.857 482.412)"></ellipse>
      <ellipse id="XMLID_28_" cx="283.6" cy="412.3" rx="10.8" ry="4.8" style="fill:#595859" transform="rotate(-72.121 283.571 412.31)"></ellipse>
      <ellipse id="XMLID_27_" cx="247.2" cy="368.1" rx="10.8" ry="4.8" style="fill:#595859" transform="rotate(-72.121 247.215 368.128)"></ellipse>
      <ellipse id="XMLID_26_" cx="273.1" cy="315" rx="10.8" ry="4.8" style="fill:#595859" transform="rotate(-72.121 273.043 315.05)"></ellipse>
      <ellipse id="XMLID_25_" cx="337.8" cy="330.1" rx="10.8" ry="4.8" style="fill:#595859" transform="rotate(-72.121 337.78 330.085)"></ellipse>
      <ellipse id="XMLID_24_" cx="322.8" cy="296.6" rx="10.8" ry="4.8" style="fill:#595859" transform="rotate(-72.121 322.747 296.642)"></ellipse>
      <ellipse id="XMLID_23_" cx="351.4" cy="251.1" rx="10.8" ry="4.8" style="fill:#595859" transform="rotate(-72.121 351.435 251.095)"></ellipse>
      <ellipse id="XMLID_22_" cx="355" cy="197" rx="10.8" ry="4.8" style="fill:#595859" transform="rotate(-47.61 354.956 197.038)"></ellipse>
      <ellipse id="XMLID_21_" cx="398.1" cy="213.6" rx="10.8" ry="4.8" style="fill:#595859" transform="rotate(-47.61 398.061 213.606)"></ellipse>
      <ellipse id="XMLID_20_" cx="446.6" cy="243.8" rx="10.8" ry="4.8" style="fill:#595859" transform="rotate(-37.859 446.605 243.849)"></ellipse>
      <ellipse id="XMLID_19_" cx="472.3" cy="185.3" rx="10.8" ry="4.8" style="fill:#595859" transform="rotate(173.168 472.33 185.338)"></ellipse>
      <ellipse id="XMLID_18_" cx="464.7" cy="137.2" rx="10.8" ry="4.8" style="fill:#595859" transform="rotate(173.168 464.66 137.168)"></ellipse>
      <ellipse id="XMLID_17_" cx="524.2" cy="173.5" rx="10.8" ry="4.8" style="fill:#595859" transform="rotate(173.168 524.181 173.527)"></ellipse>
      <ellipse id="XMLID_16_" cx="567" cy="223.6" rx="10.8" ry="4.8" style="fill:#595859" transform="rotate(173.168 567.016 223.64)"></ellipse>
      <ellipse id="XMLID_15_" cx="577.1" cy="141.8" rx="10.8" ry="4.8" style="fill:#595859" transform="rotate(173.168 577.124 141.823)"></ellipse>
      <ellipse id="XMLID_14_" cx="576.7" cy="184.6" rx="10.8" ry="4.8" style="fill:#595859" transform="rotate(173.168 576.714 184.573)"></ellipse>
      <ellipse id="XMLID_13_" cx="644.2" cy="157.4" rx="10.8" ry="4.8" style="fill:#595859" transform="rotate(-159.818 644.225 157.355)"></ellipse>
      <ellipse id="XMLID_12_" cx="623.2" cy="223.8" rx="10.8" ry="4.8" style="fill:#595859" transform="rotate(-159.818 623.158 223.833)"></ellipse>
      <ellipse id="XMLID_11_" cx="680" cy="225.9" rx="10.8" ry="4.8" style="fill:#595859" transform="rotate(-159.818 680.022 225.878)"></ellipse>
    </g>
    <path id="XMLID_10_" d="M333.5,816.3c-25.4,8.5-52.2-0.8-70-9.8c1.4,3.3,2.7,6.3,3.8,8.9c13.5,32.3,37.2,67.9,56,73.6
		c18.8,5.7,46.6-1.6,46.6-1.6l-24.5-36l35.6,31.9l39.3-9.4l-39.7-30.7l56,28.2c26.6-3.7,64.6-11.5,64.6-11.5s-22.5-6.1-55.6-22.1
		c-27-13-56-28.1-78.5-53.4C363.3,796.3,354.2,809.4,333.5,816.3z" style="fill:#595859"></path>
    <path id="XMLID_9_" d="M354.3,170.4c44.5-29.5,86-50,86-50c-80-4.9-129.9,14.1-129.9,14.1l29.5,8.6l-22.1,6.1
		c0,0-23.3,31.3-36.2,49.7c-12.9,18.4-31.9,52.2-31.9,52.2l24.5-0.6C274.2,250.5,309.8,199.9,354.3,170.4z" style="fill:#595859"></path>
    <path id="XMLID_8_" d="M817.4,369.5c-20.4-4.9-41.6-9.8-33.4-16.8c4.6-3.9,17.1-8,29.8-10.4
		c-9.5-3.5-18.6-7.6-23.5-12.1c-13.5-12.3-4.9-41.7-57.1-57.1s-210.5-54-315.4,22.7S281,467.1,274.8,537.7
		c-6.1,70.6,45,150.1,45,150.1l0.1,0C310,651.3,306.2,611,320,579c25.8-59.7,56-76.9,56-76.9s17.2-29,32.3-41.3
		c15.1-12.3,31.9-16.8,31.9-16.8s45.4-40.1,104.7-61.8c59.3-21.7,100.2-15.1,100.2-15.1l25-22.9l7,6.5h9.4l0.8,8.6l11.9-0.4
		l-4.9,12.3c0,0,5.7,13.9,25,20.9c19.2,7,60.5,0.8,106.8,0c18.5-0.3,27.7-3.7,31.5-7.9l0,0C857.6,384.2,837.8,374.4,817.4,369.5z" style="fill:#e1b27a"></path>
    <path id="XMLID_7_" d="M393.3,520.5c31.5-29.5,47-76.5,47-76.5s-16.8,4.5-31.9,16.8c-15.1,12.3-32.3,41.3-32.3,41.3
		l17.2-0.8V520.5z" style="fill:#e09660"></path>
    <path id="XMLID_6_" d="M687.4,359.3l-0.8-8.6h-9.4l-7-6.5l-25,22.9l-30.7,34h10.6l-6.1,13.1c0,0,7-0.4,8.2-0.8
		s-5,20-5,20s7.8-4.5,38.9-31.5c31.1-27,33.1-30.7,33.1-30.7l4.9-12.3L687.4,359.3z" style="fill:#e09660"></path>
    <path id="XMLID_5_" d="M849,368.7c-12.3-2.5-25.4-15.9-25.4-15.9s12.6-0.5,24.3-0.6l0,0c0,0-17.7-3.9-34.2-9.9
		c-12.8,2.4-25.2,6.5-29.8,10.4c-8.2,7,13.1,11.9,33.4,16.8c20.4,4.9,40.2,14.6,40.2,14.6l0,0C863.2,378,856.4,370.2,849,368.7z" style="fill:#595859"></path>
    <circle id="XMLID_3_" cx="812.8" cy="308.5" r="17.9"></circle>
    <circle id="XMLID_2_" cx="817.4" cy="312.1" r="7.3" style="fill:#fff"></circle>
    <path id="XMLID_1_" d="M732.4,245.2c0,0-32.7,15.5-38,48.3c-5.3,32.7-2.5,54.4-2.5,54.4s-15.5-10.7-5.7-57.3
		C696,243.9,732.4,245.2,732.4,245.2z" style="fill:#595859"></path>
  </g>
</svg>
