<?xml version="1.0" encoding="UTF-8"?>
<svg xmlns="http://www.w3.org/2000/svg" xmlns:xlink="http://www.w3.org/1999/xlink" width="2400" height="2400" viewBox="0 0 2400 2400">
<path fill-rule="evenodd" fill="rgb(80.859375%, 80.859375%, 80.859375%)" fill-opacity="1" d="M 671.921875 1093.210938 C 671.921875 1093.210938 543.527344 1146.539062 613.78125 1299.660156 C 613.78125 1299.660156 510.171875 1497.941406 740.265625 1550.613281 C 740.265625 1550.613281 823.429688 1689.546875 995.285156 1624.925781 C 995.285156 1624.925781 1119.738281 1775.484375 1303.050781 1711.949219 C 1303.050781 1711.949219 1431.128906 1824.3125 1581.878906 1738.417969 C 1581.878906 1738.417969 1777.769531 1745.453125 1777 1591.21875 C 1777 1591.21875 1719.640625 1459.023438 1681.070312 1343.160156 C 1619.160156 1157.199219 694.644531 974.800781 671.921875 1093.210938 "/>
<path fill-rule="evenodd" fill="rgb(100%, 100%, 100%)" fill-opacity="1" d="M 621.503906 1150.921875 C 621.503906 1150.921875 595.304688 1248.578125 752.542969 1256.460938 C 752.542969 1256.460938 793.910156 1340.789062 888.699219 1322.980469 C 888.699219 1322.980469 980.851562 1392.390625 1059.589844 1350.488281 C 1059.589844 1350.488281 1119.78125 1399.929688 1203.988281 1389.589844 C 1203.988281 1389.589844 1253.480469 1477.511719 1388.070312 1426.8125 C 1388.070312 1426.8125 1532.28125 1512.441406 1611.808594 1432.53125 C 1691.328125 1352.621094 1047.558594 986.828125 1047.558594 986.828125 L 668.339844 850.671875 L 643.019531 983.691406 L 678.792969 1067.488281 L 621.503906 1150.921875 "/>
<path fill-rule="evenodd" fill="rgb(58.789062%, 58.789062%, 58.789062%)" fill-opacity="1" d="M 598.1875 1341.738281 C 581.730469 1402.945312 577.289062 1513.304688 740.265625 1550.613281 C 740.265625 1550.613281 823.429688 1689.546875 995.285156 1624.925781 C 995.285156 1624.925781 1119.738281 1775.484375 1303.050781 1711.949219 C 1303.050781 1711.949219 1431.128906 1824.3125 1581.878906 1738.417969 C 1581.878906 1738.417969 1727.691406 1743.652344 1767.210938 1646.046875 C 1761.609375 1642.519531 1758.140625 1640.734375 1758.140625 1640.734375 C 1758.140625 1640.734375 1673.789062 1712.070312 1518.078125 1662.027344 C 1518.078125 1662.027344 1438.960938 1696.832031 1346.078125 1635.117188 C 1346.078125 1635.117188 1233.578125 1668.523438 1108.328125 1594.917969 C 1108.328125 1594.917969 989.496094 1583.636719 935.644531 1537.972656 C 935.644531 1537.972656 837.875 1546.320312 787.007812 1469.199219 C 787.007812 1469.199219 634.988281 1491.796875 601.738281 1340.53125 C 601.738281 1340.53125 600.488281 1340.941406 598.1875 1341.738281 "/>
<path fill-rule="evenodd" fill="rgb(31.809998%, 0%, 2.799988%)" fill-opacity="1" d="M 653.738281 1076.941406 L 653.757812 1076.921875 C 661.855469 1061.539062 679.945312 1048.449219 708.886719 1041.28125 C 796.734375 1019.53125 1003.53125 1041.941406 1205.570312 1090.308594 C 1368.75 1129.371094 1528.75 1185.070312 1620.359375 1245.519531 C 1664.339844 1274.550781 1693.089844 1305.679688 1703.101562 1335.828125 C 1716.859375 1377.328125 1733.070312 1420.941406 1748.109375 1459.742188 C 1774.75 1528.515625 1797.808594 1582.1875 1797.808594 1582.1875 C 1799.03125 1585.003906 1799.671875 1588.035156 1799.691406 1591.105469 C 1799.640625 1644.417969 1779.390625 1681.085938 1751.140625 1706.328125 C 1696.660156 1755.003906 1610.058594 1758.792969 1586.988281 1758.894531 C 1532.320312 1787.90625 1480.800781 1793.449219 1436.5 1787.984375 C 1368.710938 1779.621094 1318.019531 1745.390625 1299.460938 1731.140625 C 1235.53125 1750.574219 1178.828125 1745.722656 1131.589844 1731.050781 C 1059.039062 1708.511719 1008.980469 1662.15625 990.789062 1643.238281 C 934.570312 1662.578125 887.480469 1661.015625 849.382812 1650.402344 C 781.949219 1631.617188 742.292969 1583.535156 729.738281 1566.054688 C 649.460938 1546.871094 608.320312 1509.59375 588.125 1469.847656 C 554.273438 1403.21875 580.511719 1326.21875 591.511719 1299.769531 C 569.652344 1249.589844 568.175781 1209.140625 575.574219 1177.328125 C 589.160156 1118.910156 634.019531 1087.988281 653.738281 1076.941406 Z M 680.667969 1114.269531 C 680.667969 1114.269531 630.945312 1134.300781 617.414062 1187.511719 C 610.6875 1213.949219 612.957031 1247.980469 632.257812 1291.179688 C 634.878906 1296.898438 634.710938 1303.5 631.796875 1309.070312 C 631.796875 1309.070312 589.351562 1386.738281 621.664062 1453.175781 C 638.195312 1487.164062 674.523438 1517.128906 744.152344 1533.648438 C 748.773438 1534.703125 752.765625 1537.605469 755.203125 1541.675781 C 755.203125 1541.675781 788.882812 1598.730469 858.339844 1618.976562 C 893.21875 1629.144531 936.953125 1629.828125 989.765625 1610.246094 C 996.035156 1607.886719 1003.109375 1609.769531 1007.371094 1614.933594 C 1007.371094 1614.933594 1057.570312 1675.859375 1140.808594 1700.914062 C 1184.71875 1714.128906 1237.871094 1716.921875 1297.429688 1695.71875 C 1303.261719 1693.695312 1309.738281 1694.960938 1314.378906 1699.035156 C 1314.378906 1699.035156 1366.019531 1743.09375 1440.691406 1750.652344 C 1479.460938 1754.578125 1524.480469 1748.304688 1571.769531 1720.660156 C 1575.070312 1718.78125 1578.820312 1717.859375 1582.621094 1717.996094 C 1582.621094 1717.996094 1651.210938 1719.828125 1702.898438 1687.789062 C 1730.960938 1670.398438 1753.410156 1642.027344 1754.289062 1595.898438 C 1748.160156 1581.726562 1727.890625 1534.433594 1705.160156 1476.484375 C 1689.699219 1437.058594 1673.148438 1392.699219 1659.039062 1350.5 C 1654.308594 1336.339844 1642.890625 1322.621094 1627.03125 1308.710938 C 1607.308594 1291.410156 1580.890625 1274.519531 1549.589844 1258.089844 C 1458.671875 1210.378906 1327.710938 1167.53125 1194.71875 1135.550781 C 1033.558594 1096.808594 869.398438 1073.980469 769.617188 1079.210938 C 745.734375 1080.460938 725.832031 1083.238281 711.058594 1088.128906 C 705.601562 1089.941406 700.996094 1091.929688 697.464844 1094.441406 C 696.058594 1095.441406 694.585938 1096.109375 694.316406 1097.511719 C 692.871094 1105.03125 687.746094 1111.328125 680.667969 1114.269531 "/>
<path fill-rule="evenodd" fill="rgb(70.506287%, 20.506287%, 19.40918%)" fill-opacity="1" d="M 834.996094 633.871094 C 834.996094 633.871094 535.832031 602.390625 536.78125 852.21875 C 537.730469 1102.050781 779.867188 1149.699219 869.796875 1176.738281 C 959.726562 1203.769531 1424.210938 1166.128906 1751.960938 1562.632812 C 1890.699219 1730.472656 1903.371094 1364.269531 1764.199219 1141.398438 C 1625.03125 918.53125 1402.390625 860.390625 1319.148438 827.828125 C 1235.910156 795.261719 883.175781 678.53125 834.996094 633.871094 "/>
<path fill-rule="evenodd" fill="rgb(78.125%, 45.188904%, 41.50238%)" fill-opacity="1" d="M 547.496094 776.570312 C 540.550781 798.371094 536.671875 823.421875 536.78125 852.21875 C 537.730469 1102.050781 779.867188 1149.699219 869.796875 1176.738281 C 959.726562 1203.769531 1424.210938 1166.128906 1751.960938 1562.632812 C 1841.28125 1670.691406 1878.351562 1557.382812 1856.28125 1403.480469 L 1849.859375 1402.484375 C 1853.640625 1482.296875 1810.039062 1553.457031 1740.160156 1462.0625 C 1612.261719 1294.800781 1295.828125 1160.710938 916.011719 1056.558594 C 536.195312 952.398438 558.648438 795.621094 558.648438 795.621094 L 547.496094 776.570312 "/>
<path fill-rule="evenodd" fill="rgb(31.809998%, 0%, 2.799988%)" fill-opacity="1" d="M 850.5 617.148438 C 866.621094 632.25 919.457031 655.320312 983.910156 681.269531 C 1107.480469 731.03125 1272.878906 787.941406 1326.429688 809.230469 C 1376.980469 829.261719 1478.160156 859.140625 1581.550781 928.320312 C 1651.550781 975.160156 1722.609375 1039.78125 1779.808594 1131.648438 C 1860.101562 1259 1891.800781 1432.238281 1880 1531.601562 C 1876.640625 1559.914062 1869.570312 1582.695312 1859.859375 1598.019531 C 1851.71875 1610.859375 1841.46875 1619.148438 1830.03125 1623.195312 C 1818.28125 1627.351562 1804.820312 1627.199219 1789.75 1620.902344 C 1774.21875 1614.410156 1755.941406 1600.277344 1735.699219 1576.070312 C 1667.640625 1494.554688 1593.589844 1432.1875 1518.601562 1383.769531 C 1461.109375 1346.660156 1402.941406 1317.980469 1346.300781 1295.210938 C 1123.011719 1205.421875 920.742188 1210.78125 864.808594 1193.320312 C 802.574219 1174.691406 670.550781 1145.410156 589.011719 1051.558594 C 547.621094 1003.921875 518.609375 940.011719 517.636719 852.289062 C 516.367188 749.730469 562.371094 690.378906 619.410156 655.691406 C 712.183594 599.269531 837.386719 611.191406 837.386719 611.191406 C 842.285156 611.710938 846.886719 613.800781 850.5 617.148438 Z M 826.226562 655.96875 C 801.675781 654.101562 711.203125 650.558594 640.878906 691.691406 C 593.613281 719.320312 556.328125 768.03125 555.929688 852.148438 C 555.601562 951.800781 596.101562 1017.691406 649.800781 1061.988281 C 725.027344 1124.039062 824.53125 1145.039062 874.78125 1160.148438 C 931.617188 1176.589844 1136.5 1165.011719 1362.910156 1253.28125 C 1422.410156 1276.480469 1483.210938 1306.800781 1543.171875 1345.929688 C 1621.328125 1396.929688 1697.890625 1463.261719 1768.21875 1549.195312 C 1781.148438 1565.011719 1792.511719 1575.625 1802.871094 1581.167969 C 1808.871094 1584.382812 1813.859375 1585.980469 1818.128906 1583.519531 C 1824.570312 1579.800781 1828.710938 1571.574219 1832.421875 1560.96875 C 1840.089844 1539.035156 1843.351562 1508.011719 1842.480469 1471.839844 C 1840.210938 1377.648438 1809.761719 1250.011719 1748.589844 1151.140625 C 1694.320312 1064.5 1627.128906 1003.46875 1560.761719 959.589844 C 1459.980469 892.980469 1361.128906 865.449219 1311.871094 846.421875 C 1258.058594 825.710938 1091.910156 770.601562 967.710938 722.140625 C 903.058594 696.910156 849.558594 672.671875 826.226562 655.96875 "/>
<path fill-rule="evenodd" fill="rgb(31.809998%, 0%, 2.799988%)" fill-opacity="1" d="M 1127.261719 805.050781 C 1132.78125 814.53125 1130.78125 826.890625 1122.050781 834.089844 C 1112.351562 842.109375 1097.960938 840.730469 1089.949219 831.019531 C 1084.308594 824.191406 1080.640625 811.421875 1081.648438 796.191406 C 1083.050781 774.941406 1091.710938 747.289062 1091.710938 747.289062 C 1095.519531 735.289062 1108.351562 728.640625 1120.351562 732.441406 C 1132.339844 736.25 1139 749.078125 1135.191406 761.070312 C 1135.191406 761.070312 1131.011719 774.269531 1128.578125 788.140625 C 1127.601562 793.71875 1127.320312 802.570312 1127.261719 805.050781 "/>
<path fill-rule="evenodd" fill="rgb(90.039062%, 69.334412%, 65.625%)" fill-opacity="1" d="M 1045.570312 676.308594 C 1092.859375 695.671875 1122.5 732.75 1111.71875 759.070312 C 1100.949219 785.390625 1053.820312 791.039062 1006.53125 771.691406 C 959.253906 752.339844 929.609375 715.261719 940.382812 688.941406 C 951.15625 662.621094 998.289062 656.960938 1045.570312 676.308594 "/>
<path fill-rule="evenodd" fill="rgb(31.809998%, 0%, 2.799988%)" fill-opacity="1" d="M 1051.261719 662.421875 C 1079.140625 672.289062 1101.609375 688.21875 1115.820312 704.988281 C 1133.058594 725.328125 1137.28125 747.96875 1130.5 766.75 C 1123.378906 785.898438 1104.128906 799.578125 1077.199219 803.910156 C 1054.75 807.511719 1026.378906 803.949219 997.90625 792.769531 C 969.835938 780.671875 947.210938 763.269531 933.792969 744.941406 C 917.757812 723.039062 913.59375 699.929688 921.921875 681.378906 C 930.175781 663.300781 948.992188 650.21875 975.410156 647.738281 C 997.269531 645.679688 1024.441406 650.011719 1051.261719 662.421875 Z M 1039.890625 690.210938 C 1022.179688 683.871094 1004.691406 681.558594 989.652344 682.441406 C 974.820312 683.308594 962.367188 686.789062 958.847656 696.488281 C 957.792969 699.351562 958.703125 702.410156 959.773438 705.601562 C 962.03125 712.300781 967.304688 718.75 973.9375 725.179688 C 984.242188 735.160156 998.480469 744.109375 1015.160156 750.609375 C 1031.628906 757.589844 1048.058594 761.050781 1062.378906 761.109375 C 1071.558594 761.140625 1079.78125 760.21875 1086.039062 757.039062 C 1088.960938 755.558594 1091.730469 754.089844 1092.949219 751.378906 C 1097.21875 742.089844 1090.828125 730.988281 1080.988281 720.039062 C 1070.921875 708.851562 1056.910156 698.171875 1039.890625 690.210938 "/>
<path fill-rule="evenodd" fill="rgb(90.039062%, 69.334412%, 65.625%)" fill-opacity="1" d="M 1411.601562 814.96875 C 1456.160156 833.210938 1484.089844 868.148438 1473.941406 892.960938 C 1463.789062 917.761719 1419.371094 923.089844 1374.808594 904.851562 C 1330.25 886.609375 1302.320312 851.671875 1312.46875 826.859375 C 1322.621094 802.058594 1367.039062 796.730469 1411.601562 814.96875 "/>
<path fill-rule="evenodd" fill="rgb(31.809998%, 0%, 2.799988%)" fill-opacity="1" d="M 1417.289062 801.070312 C 1443.78125 810.371094 1465.109375 825.46875 1478.640625 841.351562 C 1495.238281 860.828125 1499.179688 882.589844 1492.710938 900.640625 C 1485.910156 919.058594 1467.449219 932.261719 1441.570312 936.460938 C 1420.230469 939.910156 1393.261719 936.539062 1366.179688 925.929688 C 1339.511719 914.398438 1318.011719 897.839844 1305.28125 880.398438 C 1289.910156 859.328125 1285.96875 837.121094 1294.011719 819.308594 C 1301.96875 801.96875 1319.96875 789.320312 1345.339844 787.011719 C 1366.089844 785.109375 1391.871094 789.238281 1417.289062 801.070312 Z M 1405.910156 828.871094 C 1389.339844 822.988281 1372.980469 820.890625 1358.921875 821.761719 C 1345.460938 822.589844 1334.109375 825.609375 1330.929688 834.421875 C 1330.03125 836.878906 1330.960938 839.488281 1331.890625 842.21875 C 1333.96875 848.378906 1338.890625 854.25 1344.988281 860.140625 C 1354.601562 869.421875 1367.890625 877.730469 1383.441406 883.769531 C 1398.769531 890.28125 1414.070312 893.539062 1427.421875 893.609375 C 1435.839844 893.648438 1443.398438 892.890625 1449.148438 889.980469 C 1451.648438 888.710938 1454.109375 887.578125 1455.160156 885.269531 C 1459.058594 876.859375 1453.128906 866.851562 1444.238281 856.898438 C 1434.859375 846.410156 1421.808594 836.359375 1405.910156 828.871094 "/>
<path fill-rule="evenodd" fill="rgb(90.039062%, 69.334412%, 65.625%)" fill-opacity="1" d="M 1747.75 1049.828125 C 1781.410156 1086.570312 1792.128906 1131.601562 1771.679688 1150.339844 C 1751.230469 1169.078125 1707.308594 1154.46875 1673.640625 1117.730469 C 1639.980469 1080.988281 1629.261719 1035.960938 1649.710938 1017.21875 C 1670.160156 998.480469 1714.089844 1013.101562 1747.75 1049.828125 "/>
<path fill-rule="evenodd" fill="rgb(31.809998%, 0%, 2.799988%)" fill-opacity="1" d="M 1758.820312 1039.691406 C 1779.390625 1060.03125 1792.628906 1083.488281 1798.230469 1104.25 C 1805.058594 1129.539062 1799.28125 1151.429688 1785.390625 1165.300781 C 1771.039062 1179.359375 1748.191406 1183.480469 1722.421875 1176.050781 C 1701.039062 1169.890625 1677.398438 1154.898438 1656.851562 1133.121094 C 1637.058594 1110.679688 1624.300781 1085.828125 1620.078125 1064 C 1615.019531 1037.789062 1621.039062 1015.511719 1636.230469 1002.511719 C 1651.160156 989.910156 1673.359375 986.128906 1697.871094 995.019531 C 1718.058594 1002.339844 1740.289062 1017.511719 1758.820312 1039.691406 Z M 1736.679688 1059.980469 C 1723.71875 1047.078125 1709.289062 1037.820312 1695.691406 1032.378906 C 1682.441406 1027.078125 1670.210938 1024.941406 1663.191406 1031.929688 C 1661.148438 1033.941406 1660.75 1036.929688 1660.390625 1040.058594 C 1659.609375 1046.839844 1661.589844 1054.628906 1664.738281 1062.96875 C 1669.671875 1075.988281 1678.480469 1089.738281 1690.441406 1102.339844 C 1702 1115.289062 1714.988281 1125.140625 1727.539062 1131.121094 C 1735.519531 1134.929688 1743.070312 1137.539062 1749.839844 1137.351562 C 1752.910156 1137.261719 1755.859375 1137.191406 1757.980469 1135.378906 C 1765.5 1129.070312 1764.429688 1116.820312 1760.378906 1103.28125 C 1756.191406 1089.261719 1748.328125 1074.050781 1736.679688 1059.980469 "/>
<path fill-rule="evenodd" fill="rgb(90.039062%, 69.334412%, 65.625%)" fill-opacity="1" d="M 960.1875 832.511719 C 1015.621094 852.390625 1051.640625 893.589844 1040.570312 924.441406 C 1029.511719 955.300781 975.519531 964.210938 920.089844 944.328125 C 864.65625 924.449219 828.636719 883.261719 839.699219 852.398438 C 850.765625 821.550781 904.757812 812.640625 960.1875 832.511719 "/>
<path fill-rule="evenodd" fill="rgb(31.809998%, 0%, 2.799988%)" fill-opacity="1" d="M 965.257812 818.378906 C 997.300781 828.390625 1023.558594 845.371094 1040.398438 863.769531 C 1060.308594 885.519531 1066.359375 910.25 1059.671875 931.289062 C 1052.660156 952.71875 1032 968.570312 1002.5 974.558594 C 977.308594 979.679688 945.101562 977.039062 912.398438 965.769531 C 880.058594 953.578125 853.609375 935.089844 837.46875 915.109375 C 818.636719 891.800781 812.734375 866.570312 820.921875 845.671875 C 829.054688 825.238281 849.378906 810.089844 878.433594 805.898438 C 903.097656 802.339844 934.148438 805.851562 965.257812 818.378906 Z M 955.117188 846.648438 C 934.101562 840.019531 913.515625 838.019531 895.945312 839.730469 C 877.519531 841.53125 862.394531 846.878906 858.480469 859.140625 C 857.1875 863.121094 858.242188 867.339844 859.886719 871.648438 C 862.953125 879.691406 869.539062 887.390625 877.921875 894.871094 C 890.558594 906.140625 907.773438 916.050781 927.777344 922.890625 C 947.578125 930.230469 967.160156 933.390625 984.0625 932.671875 C 995.222656 932.191406 1005.140625 930.410156 1012.570312 926.171875 C 1016.511719 923.921875 1019.96875 921.421875 1021.480469 917.589844 C 1026.230469 905.738281 1018 892.109375 1005.050781 879.078125 C 992.613281 866.558594 975.519531 854.960938 955.117188 846.648438 "/>
<path fill-rule="evenodd" fill="rgb(90.039062%, 69.334412%, 65.625%)" fill-opacity="1" d="M 1338.679688 963.121094 C 1390.898438 973.460938 1428.628906 1005.460938 1422.871094 1034.53125 C 1417.109375 1063.601562 1370.039062 1078.800781 1317.820312 1068.460938 C 1265.589844 1058.121094 1227.871094 1026.121094 1233.628906 997.050781 C 1239.390625 967.980469 1286.460938 952.78125 1338.679688 963.121094 "/>
<path fill-rule="evenodd" fill="rgb(31.809998%, 0%, 2.799988%)" fill-opacity="1" d="M 1341.601562 948.390625 C 1371.929688 952.960938 1397.96875 964.710938 1415.738281 978.988281 C 1437.140625 996.171875 1445.949219 1018.171875 1442.769531 1038.46875 C 1439.328125 1059.199219 1422.558594 1076.769531 1396.21875 1086.421875 C 1374.109375 1094.519531 1344.558594 1096.53125 1313.390625 1090.800781 C 1282.441406 1084.101562 1255.980469 1070.910156 1238.679688 1054.960938 C 1218.148438 1036.03125 1209.339844 1013.550781 1214.058594 993.171875 C 1218.800781 973.269531 1235.28125 956.398438 1261.460938 948.640625 C 1283.289062 942.160156 1311.820312 941.148438 1341.601562 948.390625 Z M 1335.761719 977.851562 C 1316.300781 974.859375 1297.851562 975.929688 1282.558594 979.839844 C 1267.191406 983.761719 1254.921875 990.039062 1253.199219 1000.921875 C 1252.660156 1004.238281 1254.191406 1007.398438 1256.019531 1010.621094 C 1259.71875 1017.140625 1266.46875 1022.820312 1274.671875 1028.160156 C 1287.289062 1036.378906 1303.75 1042.769531 1322.238281 1046.121094 C 1340.609375 1049.980469 1358.238281 1050.21875 1373.011719 1047.378906 C 1382.558594 1045.550781 1390.910156 1042.859375 1396.769531 1038.269531 C 1399.621094 1036.039062 1402.21875 1033.78125 1402.96875 1030.589844 C 1405.519531 1019.960938 1396.640625 1009.589844 1384.058594 1000.148438 C 1371.449219 990.679688 1354.871094 982.570312 1335.761719 977.851562 "/>
<path fill-rule="evenodd" fill="rgb(90.039062%, 69.334412%, 65.625%)" fill-opacity="1" d="M 1645.949219 1178.671875 C 1686.179688 1220.050781 1700.140625 1271.820312 1677.109375 1294.21875 C 1654.078125 1316.609375 1602.710938 1301.199219 1562.480469 1259.820312 C 1522.261719 1218.441406 1508.289062 1166.671875 1531.328125 1144.269531 C 1554.359375 1121.878906 1605.71875 1137.289062 1645.949219 1178.671875 "/>
<path fill-rule="evenodd" fill="rgb(31.809998%, 0%, 2.799988%)" fill-opacity="1" d="M 1656.71875 1168.199219 C 1680.679688 1190.839844 1696.519531 1217.148438 1703.449219 1240.648438 C 1711.671875 1268.519531 1706.28125 1293.019531 1691.25 1308.769531 C 1675.769531 1324.710938 1650.601562 1329.820312 1621.890625 1322.351562 C 1597.441406 1316 1570.148438 1299.761719 1546.148438 1275.699219 C 1522.878906 1250.96875 1507.53125 1223.21875 1501.929688 1198.609375 C 1495.371094 1169.808594 1501.109375 1144.910156 1517.421875 1129.96875 C 1533.480469 1115.421875 1558.019531 1110.78125 1585.550781 1119.671875 C 1608.839844 1127.199219 1634.710938 1143.699219 1656.71875 1168.199219 Z M 1635.191406 1189.140625 C 1619.558594 1174.300781 1602.328125 1163.710938 1586.160156 1157.671875 C 1569.328125 1151.390625 1553.871094 1149.558594 1545.230469 1158.578125 C 1542.441406 1161.460938 1541.621094 1165.550781 1541.21875 1169.960938 C 1540.460938 1178.300781 1542.949219 1187.839844 1547.078125 1197.960938 C 1553.339844 1213.28125 1564.199219 1229.351562 1578.820312 1243.941406 C 1593.03125 1258.890625 1608.859375 1270.078125 1623.988281 1276.710938 C 1633.949219 1281.070312 1643.371094 1283.78125 1651.679688 1283.25 C 1656.019531 1282.980469 1660.058594 1282.328125 1662.96875 1279.671875 C 1672.171875 1271.378906 1670.769531 1255.988281 1665.050781 1239.109375 C 1659.519531 1222.769531 1649.519531 1205.210938 1635.191406 1189.140625 "/>
<path fill-rule="evenodd" fill="rgb(31.90918%, 48.706055%, 23.802185%)" fill-opacity="1" d="M 1370.078125 838.359375 C 1379.019531 826.859375 1382.378906 811.988281 1379.261719 797.769531 C 1376.140625 783.550781 1366.859375 771.449219 1353.929688 764.761719 C 1292.238281 731.96875 1177.160156 715.578125 1146.941406 758.46875 C 1101.339844 823.210938 951.894531 1046.300781 940.804688 1163.148438 C 932.679688 1248.710938 916.378906 1676.210938 989.976562 1710.464844 C 1063.210938 1744.550781 1240.28125 1827.957031 1234.421875 1681.871094 C 1228.550781 1535.785156 1172.121094 1246.769531 1189.910156 1189.269531 C 1204.039062 1143.601562 1310.828125 927.101562 1370.078125 838.359375 "/>
<path fill-rule="evenodd" fill="rgb(9.790039%, 25.292969%, 2.397156%)" fill-opacity="1" d="M 1374.839844 830.960938 C 1373.488281 833.539062 1371.898438 836.019531 1370.078125 838.359375 C 1310.828125 927.101562 1204.039062 1143.601562 1189.910156 1189.269531 C 1172.121094 1246.769531 1228.550781 1535.785156 1234.421875 1681.871094 C 1240.28125 1827.957031 1063.210938 1744.550781 989.976562 1710.464844 C 975.613281 1703.78125 964.675781 1682.121094 956.433594 1650.949219 C 936.875 1508.007812 946.503906 1282.480469 952.160156 1222.871094 C 963.253906 1106.019531 1112.691406 882.929688 1158.300781 818.191406 C 1188.519531 775.308594 1303.601562 791.691406 1365.28125 824.480469 C 1368.75 826.269531 1371.949219 828.449219 1374.839844 830.960938 "/>
<path fill-rule="evenodd" fill="rgb(15.209961%, 34.008789%, 6.199646%)" fill-opacity="1" d="M 959.976562 1663.222656 C 958.742188 1659.316406 957.5625 1655.222656 956.433594 1650.949219 C 936.875 1508.007812 946.503906 1282.480469 952.160156 1222.871094 C 963.253906 1106.019531 1112.691406 882.929688 1158.300781 818.191406 C 1188.519531 775.308594 1303.601562 791.691406 1365.28125 824.480469 C 1367.070312 825.398438 1368.789062 826.429688 1370.429688 827.558594 C 1306.699219 924.238281 1209.339844 1108.160156 1195.03125 1149.78125 C 1175.449219 1206.699219 1178.679688 1483.5 1179.980469 1629.695312 C 1181.140625 1760.847656 1040.921875 1702.804688 959.976562 1663.222656 "/>
<path fill-rule="evenodd" fill="rgb(31.809998%, 0%, 2.799988%)" fill-opacity="1" d="M 1388.78125 851.421875 L 1388.738281 851.46875 C 1361.808594 891.019531 1325.070312 956.171875 1291.609375 1019.789062 C 1251.390625 1096.261719 1215.789062 1170.421875 1207.96875 1194.851562 C 1203.078125 1210.199219 1204.46875 1243.488281 1208.058594 1286.328125 C 1217.621094 1400.40625 1246.148438 1577.140625 1249.570312 1681.261719 C 1251.03125 1721.542969 1239.601562 1746.617188 1221.941406 1761.507812 C 1207.511719 1773.679688 1188.371094 1779.34375 1166.441406 1779.890625 C 1108 1781.351562 1027.53125 1744.785156 983.453125 1724.476562 C 972.621094 1719.554688 962.625 1708.710938 954.414062 1692.269531 C 939.859375 1663.125 929.765625 1613.902344 923.417969 1556.230469 C 907.636719 1412.886719 913.71875 1216.328125 918.234375 1161.011719 C 919.59375 1147.460938 922.390625 1132.550781 927.046875 1116.820312 C 935.421875 1088.511719 949.136719 1057.261719 965.460938 1024.988281 C 989.160156 978.128906 1019.828125 929.988281 1047.449219 885.28125 C 1083.621094 826.710938 1115.730469 774.898438 1133.429688 748.949219 C 1149.269531 725.511719 1185.421875 714.238281 1227.890625 714.480469 C 1273.960938 714.730469 1327.300781 727.808594 1363.578125 746.121094 C 1372.949219 750.71875 1380.910156 757.441406 1387.28125 765.390625 C 1393.691406 773.390625 1398.179688 782.871094 1400.640625 793.078125 C 1403.128906 803.351562 1403.050781 813.898438 1400.988281 824.011719 C 1398.988281 833.820312 1394.761719 843.121094 1388.78125 851.421875 Z M 1352.078125 824.371094 C 1354.550781 821.308594 1356.46875 817.890625 1357.390625 814.160156 C 1358.328125 810.371094 1358.640625 806.390625 1357.871094 802.460938 C 1357.078125 798.480469 1355.609375 794.691406 1353.261719 791.488281 C 1350.871094 788.238281 1347.898438 785.371094 1344.269531 783.390625 C 1344.210938 783.359375 1344.140625 783.320312 1344.078125 783.289062 C 1313.011719 765.929688 1267.03125 752.75 1226.949219 750.898438 C 1209.890625 750.121094 1193.949219 751.21875 1180.980469 755.339844 C 1172.300781 758.101562 1164.960938 761.859375 1160.460938 768 C 1142.21875 793.058594 1106.339844 841.519531 1071.519531 899.851562 C 1060.179688 918.851562 1049.46875 939.140625 1038.921875 959.640625 C 1017.628906 1000.96875 998.878906 1043.910156 984.617188 1082.980469 C 973.445312 1113.589844 965.222656 1141.71875 963.371094 1165.289062 C 957.511719 1219.410156 946.503906 1411.929688 958.253906 1552.855469 C 961.976562 1597.523438 967.785156 1636.917969 977.195312 1664.570312 C 982.621094 1680.515625 988.019531 1692.414062 996.5 1696.453125 C 1037.300781 1715.632812 1111.429688 1751.707031 1165.730469 1750.410156 C 1183.640625 1749.984375 1199.191406 1745.359375 1208.710938 1732.289062 C 1216.71875 1721.308594 1220.261719 1705.085938 1219.261719 1682.480469 C 1214.339844 1578.792969 1183.371094 1403.132812 1172.070312 1289.628906 C 1167.128906 1240.078125 1166.488281 1201.550781 1171.859375 1183.679688 C 1179.460938 1158.238281 1214.558594 1080.710938 1254.589844 1000.789062 C 1287.75 934.601562 1324.28125 866.78125 1351.121094 825.699219 C 1351.421875 825.238281 1351.738281 824.800781 1352.078125 824.371094 "/>
<path fill-rule="evenodd" fill="rgb(31.809998%, 0%, 2.799988%)" fill-opacity="1" d="M 917.011719 682.121094 C 919.65625 669.820312 931.792969 661.96875 944.097656 664.621094 C 956.402344 667.261719 964.25 679.390625 961.605469 691.699219 C 961.605469 691.699219 956.273438 712.679688 940.316406 729.148438 C 930.589844 739.191406 918.027344 748.519531 900.773438 750.628906 C 891.40625 752.558594 882.234375 746.53125 880.296875 737.171875 C 878.359375 727.800781 884.390625 718.628906 893.757812 716.691406 C 901.261719 714.480469 905.714844 708.871094 909.289062 703.699219 C 916.222656 693.660156 917.011719 682.121094 917.011719 682.121094 "/>
<path fill-rule="evenodd" fill="rgb(31.809998%, 0%, 2.799988%)" fill-opacity="1" d="M 1454.289062 881.300781 C 1459.011719 869.640625 1472.320312 864 1483.988281 868.730469 C 1495.648438 873.449219 1501.289062 886.761719 1496.558594 898.429688 C 1496.558594 898.429688 1491.230469 908.03125 1488.5 922.671875 C 1487.039062 930.53125 1485.78125 939.578125 1486.578125 949.390625 C 1488.179688 958.820312 1481.828125 967.78125 1472.398438 969.378906 C 1462.96875 970.980469 1454.011719 964.621094 1452.410156 955.191406 C 1449.03125 942.160156 1448.441406 929.679688 1448.558594 918.75 C 1448.820312 896.671875 1454.289062 881.300781 1454.289062 881.300781 "/>
<path fill-rule="evenodd" fill="rgb(31.809998%, 0%, 2.799988%)" fill-opacity="1" d="M 1629.289062 1005.800781 C 1636.691406 995.609375 1650.960938 993.339844 1661.140625 1000.730469 C 1671.328125 1008.121094 1673.609375 1022.390625 1666.21875 1032.578125 C 1666.21875 1032.578125 1656.070312 1045.828125 1637.339844 1053.269531 C 1627.839844 1057.039062 1616.640625 1060.410156 1603.53125 1059.21875 C 1593.96875 1059.359375 1586.089844 1051.71875 1585.941406 1042.160156 C 1585.800781 1032.589844 1593.449219 1024.710938 1603.011719 1024.570312 C 1609.519531 1023.78125 1614.449219 1020.570312 1618.679688 1017.738281 C 1626.210938 1012.699219 1629.289062 1005.800781 1629.289062 1005.800781 "/>
<path fill-rule="evenodd" fill="rgb(31.809998%, 0%, 2.799988%)" fill-opacity="1" d="M 1769.558594 1176.519531 L 1760.050781 1134.21875 C 1770.859375 1127.78125 1784.871094 1131.339844 1791.308594 1142.148438 C 1797.75 1152.960938 1794.191406 1166.96875 1769.558594 1176.519531 Z M 1769.558594 1176.519531 L 1783.941406 1172.761719 C 1783.941406 1172.761719 1777.828125 1176.339844 1773.75 1182.039062 C 1770.539062 1186.511719 1766.871094 1191.980469 1763.820312 1199.429688 C 1761.210938 1208.628906 1751.621094 1213.980469 1742.421875 1211.371094 C 1733.21875 1208.761719 1727.871094 1199.179688 1730.480469 1189.980469 C 1732.878906 1175.480469 1737.421875 1164.96875 1741.390625 1156.941406 C 1746.921875 1145.75 1753.28125 1140.050781 1756.210938 1137.160156 C 1757.558594 1135.828125 1758.679688 1135.191406 1759.160156 1134.800781 C 1759.460938 1134.550781 1759.800781 1134.371094 1759.800781 1134.371094 L 1769.558594 1176.519531 "/>
<path fill-rule="evenodd" fill="rgb(31.809998%, 0%, 2.799988%)" fill-opacity="1" d="M 1514.078125 1132.238281 C 1525.011719 1126 1538.949219 1129.800781 1545.199219 1140.730469 C 1551.441406 1151.660156 1547.640625 1165.601562 1536.710938 1171.839844 C 1536.710938 1171.839844 1518.480469 1180.789062 1497.058594 1184.308594 C 1487.269531 1185.921875 1477.058594 1186.980469 1467.46875 1185.550781 C 1457.921875 1185 1450.609375 1176.800781 1451.160156 1167.261719 C 1451.710938 1157.710938 1459.898438 1150.398438 1469.449219 1150.949219 C 1477.128906 1150.691406 1484.871094 1147.550781 1491.910156 1144.621094 C 1504.628906 1139.328125 1514.078125 1132.238281 1514.078125 1132.238281 "/>
<path fill-rule="evenodd" fill="rgb(31.809998%, 0%, 2.799988%)" fill-opacity="1" d="M 1659.871094 1279.210938 C 1668.398438 1269.960938 1682.839844 1269.371094 1692.089844 1277.910156 C 1701.351562 1286.441406 1701.929688 1300.878906 1693.398438 1310.128906 C 1693.398438 1310.128906 1685.390625 1316.929688 1677.429688 1329.78125 C 1673.230469 1336.570312 1668.710938 1344.589844 1665.398438 1354.179688 C 1663.078125 1363.460938 1653.660156 1369.109375 1644.378906 1366.789062 C 1635.101562 1364.46875 1629.460938 1355.058594 1631.78125 1345.78125 C 1633.851562 1332.710938 1637.738281 1321.359375 1641.589844 1311.710938 C 1649.839844 1291.039062 1659.871094 1279.210938 1659.871094 1279.210938 "/>
<path fill-rule="evenodd" fill="rgb(31.809998%, 0%, 2.799988%)" fill-opacity="1" d="M 1400.738281 1028.21875 C 1402.550781 1015.761719 1414.128906 1007.121094 1426.589844 1008.921875 C 1439.039062 1010.730469 1447.691406 1022.308594 1445.878906 1034.769531 C 1445.878906 1034.769531 1441.808594 1052.660156 1440.761719 1071.628906 C 1440.371094 1078.738281 1440.101562 1085.960938 1440.980469 1092.308594 C 1441.449219 1095.75 1441.550781 1098.960938 1442.910156 1101.21875 C 1448.351562 1109.089844 1446.390625 1119.890625 1438.53125 1125.339844 C 1430.671875 1130.78125 1419.871094 1128.820312 1414.421875 1120.960938 C 1408.769531 1113.871094 1405.160156 1102.769531 1402.820312 1090.269531 C 1397.75 1063.121094 1400.738281 1028.21875 1400.738281 1028.21875 "/>
<path fill-rule="evenodd" fill="rgb(31.809998%, 0%, 2.799988%)" fill-opacity="1" d="M 817.574219 849.988281 C 823.285156 838.78125 837.027344 834.308594 848.242188 840.019531 C 859.460938 845.730469 863.929688 859.46875 858.21875 870.691406 C 858.21875 870.691406 844.300781 894.578125 825.691406 910.25 C 813.5625 920.460938 800.070312 927.820312 786.839844 927.128906 C 777.277344 927.339844 769.347656 919.75 769.140625 910.191406 C 768.933594 900.621094 776.527344 892.691406 786.089844 892.488281 C 787.984375 892.308594 789.398438 890.699219 791.121094 889.511719 C 795.316406 886.621094 798.722656 882.089844 802.085938 877.640625 C 811.753906 864.878906 817.574219 849.988281 817.574219 849.988281 "/>
<path fill-rule="evenodd" fill="rgb(31.809998%, 0%, 2.799988%)" fill-opacity="1" d="M 903.324219 876.671875 C 898.628906 877.839844 893.855469 874.988281 892.679688 870.289062 C 891.503906 865.589844 894.363281 860.820312 899.0625 859.640625 C 899.0625 859.640625 909.34375 855.898438 924.953125 855.960938 C 932.507812 855.988281 941.328125 856.949219 950.550781 859.96875 C 955.269531 861.519531 960.050781 863.710938 964.78125 866.511719 C 974.035156 871.988281 983.171875 879.609375 991.574219 890.109375 C 994.894531 893.628906 994.730469 899.191406 991.203125 902.511719 C 987.675781 905.828125 982.117188 905.671875 978.796875 902.140625 C 974.324219 898.160156 969.707031 895.101562 965.238281 892.308594 C 957.632812 887.570312 950.042969 884.808594 943.050781 882.519531 C 935.847656 880.160156 929.265625 878.421875 923.421875 877.609375 C 911.527344 875.960938 903.324219 876.671875 903.324219 876.671875 "/>
<path fill-rule="evenodd" fill="rgb(31.809998%, 0%, 2.799988%)" fill-opacity="1" d="M 1574.339844 1193.230469 C 1569.550781 1192.480469 1566.269531 1187.988281 1567.011719 1183.210938 C 1567.75 1178.421875 1572.238281 1175.140625 1577.03125 1175.878906 C 1577.03125 1175.878906 1588.679688 1176.53125 1603.300781 1183.699219 C 1610.398438 1187.179688 1618.199219 1192.28125 1625.261719 1199.71875 C 1628.808594 1203.460938 1632.089844 1207.871094 1634.980469 1212.890625 C 1640.429688 1222.328125 1644.710938 1233.820312 1646.878906 1247.828125 C 1647.988281 1252.550781 1645.058594 1257.28125 1640.339844 1258.390625 C 1635.628906 1259.5 1630.898438 1256.570312 1629.789062 1251.851562 C 1627.839844 1245.878906 1625.320312 1240.71875 1622.789062 1235.941406 C 1618.421875 1227.660156 1613.070312 1221.398438 1607.949219 1216 C 1602.628906 1210.390625 1597.46875 1205.820312 1592.5 1202.53125 C 1582.398438 1195.828125 1574.339844 1193.230469 1574.339844 1193.230469 "/>
<path fill-rule="evenodd" fill="rgb(31.809998%, 0%, 2.799988%)" fill-opacity="1" d="M 1291.050781 1014.328125 C 1286.730469 1016.519531 1281.441406 1014.800781 1279.25 1010.480469 C 1277.050781 1006.160156 1278.78125 1000.871094 1283.089844 998.679688 C 1283.089844 998.679688 1292.050781 992.859375 1306.738281 990.25 C 1313.871094 988.988281 1322.390625 988.570312 1331.609375 990.320312 C 1336.25 991.199219 1341.039062 992.730469 1345.859375 994.929688 C 1354.921875 999.070312 1364.171875 1005.339844 1373.179688 1014.640625 C 1376.839844 1017.820312 1377.230469 1023.371094 1374.050781 1027.019531 C 1370.871094 1030.679688 1365.328125 1031.070312 1361.671875 1027.890625 C 1357.101562 1024.621094 1352.539062 1022.269531 1348.191406 1020.148438 C 1340.710938 1016.511719 1333.578125 1014.871094 1327.089844 1013.640625 C 1320.339844 1012.371094 1314.28125 1011.671875 1308.988281 1011.839844 C 1298.230469 1012.191406 1291.050781 1014.328125 1291.050781 1014.328125 "/>
<path fill-rule="evenodd" fill="rgb(31.809998%, 0%, 2.799988%)" fill-opacity="1" d="M 1363.289062 846.691406 C 1362.5 842.71875 1363.171875 838.640625 1368.578125 837.460938 C 1371.730469 836.761719 1378.320312 835.808594 1386.851562 836.730469 C 1392.769531 837.359375 1399.589844 839.039062 1406.421875 842.648438 C 1409.859375 844.460938 1413.238281 846.851562 1416.441406 849.808594 C 1422.429688 855.328125 1428.039062 862.5 1432.628906 872.058594 C 1435.179688 876.179688 1433.910156 881.589844 1429.789062 884.148438 C 1425.679688 886.699219 1420.261719 885.429688 1417.710938 881.320312 C 1414.988281 877.910156 1412.039062 875.289062 1409.261719 872.78125 C 1404.558594 868.53125 1399.648438 865.941406 1395.210938 863.589844 C 1390.609375 861.160156 1386.460938 859.148438 1382.609375 858.011719 C 1375.730469 855.980469 1370.261719 855.511719 1367.988281 855.398438 C 1367.609375 855.410156 1367.230469 855.398438 1366.851562 855.359375 C 1363 855 1359.71875 852.101562 1359.03125 848.109375 C 1358.410156 844.511719 1360.089844 841.039062 1363.289062 846.691406 "/>
<path fill-rule="evenodd" fill="rgb(31.809998%, 0%, 2.799988%)" fill-opacity="1" d="M 1689.628906 1056.660156 C 1689.5 1052.210938 1690.789062 1048.03125 1696.421875 1048.96875 C 1699.671875 1049.511719 1706.28125 1051.109375 1714.019531 1055.210938 C 1719.390625 1058.058594 1725.230469 1062.21875 1730.351562 1068.230469 C 1732.921875 1071.238281 1735.230469 1074.78125 1737.171875 1078.789062 C 1740.78125 1086.289062 1743.410156 1095.21875 1744.191406 1106.019531 C 1745.039062 1110.789062 1741.859375 1115.351562 1737.101562 1116.210938 C 1732.328125 1117.058594 1727.761719 1113.878906 1726.910156 1109.109375 C 1725.621094 1104.820312 1723.820312 1101.179688 1722.121094 1097.71875 C 1719.25 1091.859375 1715.550781 1087.488281 1712.191406 1083.550781 C 1708.710938 1079.46875 1705.488281 1075.96875 1702.230469 1073.421875 C 1697.378906 1069.648438 1693.410156 1067.160156 1691.289062 1066.238281 C 1691.148438 1066.179688 1691.019531 1066.101562 1690.898438 1066.019531 C 1691.128906 1065.96875 1691.328125 1065.890625 1691.328125 1065.890625 L 1690.460938 1065.75 C 1690.570312 1065.800781 1690.71875 1065.910156 1690.898438 1066.019531 C 1690.558594 1066.109375 1690.171875 1066.140625 1690.308594 1065.761719 C 1690.320312 1065.738281 1690.328125 1065.738281 1690.339844 1065.730469 C 1685.601562 1064.730469 1682.570312 1060.078125 1683.570312 1055.339844 C 1684.351562 1051.640625 1687.351562 1048.988281 1689.628906 1056.660156 "/>
<path fill-rule="evenodd" fill="rgb(31.809998%, 0%, 2.799988%)" fill-opacity="1" d="M 990.058594 705.488281 C 989.269531 701.488281 989.949219 697.359375 995.414062 696.210938 C 998.699219 695.519531 1005.570312 694.46875 1014.558594 695.121094 C 1020.789062 695.570312 1028.011719 696.898438 1035.390625 700.019531 C 1039.179688 701.621094 1042.960938 703.78125 1046.621094 706.460938 C 1053.78125 711.710938 1060.660156 718.660156 1066.671875 727.980469 C 1069.691406 731.769531 1069.058594 737.300781 1065.261719 740.320312 C 1061.46875 743.328125 1055.949219 742.699219 1052.929688 738.910156 C 1049.621094 735.558594 1046.109375 733.019531 1042.738281 730.601562 C 1037.078125 726.519531 1031.308594 724.078125 1026.039062 721.859375 C 1020.609375 719.570312 1015.691406 717.640625 1011.230469 716.570312 C 1003.441406 714.679688 997.382812 714.261719 994.847656 714.160156 C 994.410156 714.191406 993.976562 714.179688 993.550781 714.140625 C 989.675781 713.769531 986.375 710.828125 985.71875 706.808594 C 985.128906 703.191406 986.851562 699.71875 990.058594 705.488281 "/>
</svg>
